<svg version="1.2" xmlns="http://www.w3.org/2000/svg" viewBox="0 1.9999999999999836 1019 460" width="1019" height="461">
	<defs>
		<linearGradient id="g1" x2="1" gradientUnits="userSpaceOnUse" gradientTransform="matrix(0,37.86,-389.599,0,37.391,31.59)">
			<stop offset="0" stop-color="#6b8496"/>
			<stop offset="1" stop-color="#2f4455"/>
		</linearGradient>
	</defs>
	<style>
		tspan { white-space:pre } 
		.s0 { fill: #ffffff } 
		.s1 { fill: #e9f4fd } 
		.s2 { fill: #e3ebfc } 
		.s3 { fill: #d8e9fb } 
		.s4 { fill: #e3e2e4 } 
		.s5 { fill: #c5def6 } 
		.s6 { fill: #9bc7ec } 
		.s7 { fill: #8cbfeb } 
		.s8 { fill: #5fb6eb } 
		.s9 { fill: #df2f32 } 
		.s10 { fill: #56534f } 
		.s11 { fill: #26428b } 
		.s12 { fill: #2e2b2c } 
		.s13 { fill: #000000 } 
		.s14 { fill: #000000;stroke: #ffffff;stroke-miterlimit:10;stroke-width: 6 } 
		.s15 { fill: url(#g1) } 
		.s16 { fill: #ffd400 } 
		.s17 { fill: #fefefe } 

		.t18 { font-size: 24px;fill: #000000;font-weight: 400; } 
		.s19 { fill: #4095ef;stroke: #196bbf;stroke-miterlimit:100 } 
		.t20 { font-size: 24px;fill: #ffffff;font-weight: 400; } 
	
		.system-font { font-family: '돋움', 'Dotum', '돋움체', 'DotumChe', sans-serif; }
		.darkmode-text { fill: #000000; }
		@media (prefers-color-scheme: dark) {
			.darkmode-text { fill: #ffffff; }
		}
	</style>
	<g id="flag-bg">
		<path id="Shape 4" fill-rule="evenodd" class="s0" d="m376.5 2.45c-0.01 1.15-11 2.01-12.86 3.49-1.76 1.41 3.62 2.86 1.71 4.87-7.7 8.1-15.54 7.77-16.02 19.16-0.33 8 6.67 10 4.34 25.03-1.83 11.76-7.34 23.3-13.34 24.97-12.9 3.58-11.66-26.67-26.79-2.02-0.36 0.58-4.27 7.18-4.57 7.86-1.29 2.91-11.23 9.58-13.99 11.6-9.98 7.31-12.31 13.55-24.48 13.59-10.36 0.04-270.5 6.45-270.5 0 0-2.55 0-88.05 0-109"/>
	</g>
	<g id="l3UOhbSIpuV36usDpk83RJn">
		<g>
			<path id="p70O7CqHd" class="s1" d="m40.7 106.9c-0.1-0.2-4.3-0.4-9.2-0.5-5-0.2-9.6-0.7-10.2-1.2-0.7-0.5-1.3-0.6-1.3-0.1 0 0.5-0.4 0.3-0.9-0.5-1-1.5-2.6-1.8-11.8-2l-6.2-0.1-1-3.7c-1.1-3.7-1.4-20-0.4-17.5 0.2 0.6 1.1 1.2 1.9 1.2 0.9 0 1.4 1.1 1.4 2.8 0 4.2 0.9 4.8 8.5 6.1 3.9 0.7 11.1 1.9 16 2.7 5 0.9 12.2 2.2 16 3 5 1.1 12.7 1.4 27 1.3 13.8-0.2 20.7 0.1 22.2 0.9 3.2 1.7 16.5 1.5 18.9-0.3 1.8-1.4 1.8-1.4-1-1.5-2.5 0-13.1-5.9-14.6-8.1-0.3-0.5-2.6-1.1-5-1.4-6.3-0.9-8.7-1.8-24.2-9.3-13.6-6.5-13.8-6.6-13.8-9.9 0-3 0.3-3.3 2.8-3.2 1.6 0.1 2 0.3 1 0.6-1 0.2-1.8 0.8-1.8 1.2 0 0.4 6.2 3.7 13.9 7.4 13.8 6.5 13.9 6.6 23.2 6.8 5.5 0.1 10.5 0.7 12 1.5 1.5 0.7 2.9 1.1 3.2 0.7 1-0.9 5.7 0.6 5.7 1.9 0 2 3.1 4.7 4.8 4.1 3.7-1.3 6.2-5.1 6.2-9.6 0-6.8 3-8.4 9.3-4.8 3.7 2.1 4.8 1.8 6.6-1.6 2-3.9 3.4-2.7 2.9 2.2-0.5 4.4-0.5 4.5 2.3 4.5 1.9 0 2.9 0.5 2.9 1.5 0 0.8-0.6 1.5-1.4 1.5-2.9 0-2.5 1.8 0.8 4.1 2.8 1.9 3.3 2.7 2.5 4.1-0.7 1.3-0.6 1.8 0.2 1.8 0.8 0 0.8 0.4-0.1 1.5-0.6 0.8-0.9 1.8-0.7 2.2 0.3 0.5-1.4 0.9-3.9 0.9-2.4 0-4.5-0.3-4.5-0.6-0.6-2.4-0.5-4.9 0.2-4.4 0.4 0.2 0.5 1.2 0.2 2.2-0.4 0.9 0.5 0.3 2-1.4 4.3-5.1 3.1-7.7-2.4-4.9-1.7 0.9-3.7 1.4-4.5 1.1-0.8-0.3-1.4-0.1-1.4 0.4 0 0.6-0.3 0.9-0.7 0.9-3.5-0.6-4.5 1.6-1.3 2.6 1.1 0.4 1.8 1.1 1.5 1.6-0.4 0.5 0.3 0.9 1.3 0.9 1.1 0 2.5 0.7 3.2 1.5 0.7 0.8 3.1 1.6 5.4 1.6 2.3 0.1 3.1 0.4 1.8 0.6-1.2 0.2-2 0.8-1.7 1.3 0.3 0.4-0.2 1.3-1 2-0.8 0.7-1.5 0.9-1.5 0.4 0-0.5-0.4-0.3-0.9 0.4-0.4 0.7-2.5 1.5-4.7 1.8-3.8 0.5-95.2 1.2-95.7 0.8zm107.7-11c0.8-2.1 0.8-2.4-0.3-2.4-0.5 0-1.1 0.9-1.4 2-0.6 2.4 0.8 2.7 1.7 0.4z"/>
			<path id="pDCSSycCB" class="s1" d="m194.5 106.8c-3.3-0.3-5.5-1-6.5-2.2-0.8-1-4.1-3.5-7.3-5.5-4.5-2.8-5.7-4.1-5.2-5.4 0.4-0.9 0.9-7 1.2-13.4 0.4-10.1 0.3-11.8-1-11.8-2 0-2.7 2.4-2.3 8.2 0.4 5.5-1.5 16-2.9 16.5-0.6 0.1-1.7-0.2-2.5-0.7-1.3-0.8-1.3-1.2-0.1-3.2 0.9-1.5 1.6-6.5 1.9-14.2 0.4-10.3 0.3-12-1.2-12.8-0.9-0.5-1.6-2.2-1.6-3.8v-3l3.3 1.8c3.9 2.2 6.7 1.8 6.7-0.9 0-1.7 0.6-2 3.3-1.7 2.8 0.3 3.2 0.7 3.5 3.6 0.3 2.9 0.6 3.3 3 3 2.4-0.3 2.8-0.8 3.2-4.9 0.8-6.7 3.2-9.9 7.6-9.9 4.2 0 10.4 4.3 10.4 7.1 0 1.5 0.7 1.9 3.4 1.9 2.1 0 8.2 2.4 16.5 6.5 7.3 3.6 15.3 7 17.9 7.6 2.6 0.7 6.3 2 8.2 3 1.9 1 8.1 2.7 13.8 3.8 11.1 2.2 13.4 3.1 17.2 6.7 2.4 2.2 2.7 2.3 4.8 0.8 1.8-1.3 2.2-2.5 2.2-7.3 0-5.7 0.2-6.1 5-11.8 0.5-0.7 1-2.5 1-4.1 0-2.5-0.5-3-3-3.5-2.7-0.6-3-1-3-4.7 0-3.9 0.1-4 4.5-5.1 5.2-1.3 6.2-2.3 4.4-4.6-3-3.5-14.2-6.4-34.2-8.9-4.3-0.5-4.8-0.8-5.3-3.4-0.7-3-0.3-2.9-13.1-4.6-5.2-0.6-5.3-0.7-5.3-4 0-2.7 0.4-3.4 1.9-3.4 1 0 2.1-0.6 2.4-1.4 0.6-1.6-1.2-2.3-11-4.7-2.9-0.7-5.3-1.6-5.3-2.1 0-0.4-1.1-0.8-2.5-0.8-1.4 0-2.5-0.6-2.5-1.4 0-1.4-6-2.6-12.6-2.6-2.6 0-3.4-0.4-3.4-1.8 0-1.8 1.1-1.9 17.3-1.6 18.2 0.2 19.2 0.4 30.2 5.3 9.2 4.2 9.8 4.5 9.8 5.6 0.1 1.3-3.4 2-4.2 0.8-0.8-1.1-7.4-3.4-11.5-4-1.7-0.2-5.8-1.3-9.1-2.3-7.6-2.4-9.9-2.7-10.3-1.5-0.3 1 5 2.9 10.6 3.8 4 0.7 6.3 1.8 9.9 4.5 2.7 2 3 2.6 2 4.2-1.4 2.3-0.9 2.9 2.9 3.7 3.3 0.6 3 0.6 10.4-0.6 8.8-1.4 19.4-0.9 21.3 1.1 2.5 2.4 1.1 2.9-11.8 4.3-7.4 0.9-9.6 2.5-3.4 2.6 2.4 0 5.3 0.3 6.4 0.5 1.1 0.2 5.5 0.4 9.7 0.4 7.4 0 7.8 0.1 12.6 4 2.8 2.1 5.3 4.8 5.6 5.8 0.8 2.5-2.9 11.2-4.9 11.3-6.3 0.5-4.9 1.5 6.7 4.3 6.2 1.6 12.1 3 13.1 3.3 1.4 0.4 1.7 1.3 1.5 4.6-0.2 3.5-0.7 4.3-2.5 4.5-1.3 0.2-2.3 0.9-2.3 1.6 0 1.8-2.7 4-3.4 2.8-0.3-0.6 0-2.8 0.8-5 1.6-4.5 0.8-6.2-3-6.2-4.1 0-5.4 1.1-5.4 4.6 0 1.8-0.5 6.6-1.2 10.6-1.1 6.2-1.8 7.9-5 11.3-2.1 2.2-3.8 4.6-3.8 5.2 0 2-7 5-13 5.6-6.2 0.7-7.8 0.1-7.4-2.8 2.3-13 2.4-12.8-15.8-16.5-5.5-1.1-10.6-2.4-11.3-3-0.6-0.5-4.7-2-9.1-3.4-4.5-1.4-12.9-5-18.7-7.9-10.1-5.1-10.8-5.3-12.9-3.8-1.3 0.9-2.4 1.5-2.5 1.3-0.2-0.1-0.4-0.2-0.5-0.1-1.1 0.3-5 0.9-8.8 1.4-7.5 1-10 1.6-10 2.6 0 0.5 0.5 0.9 1 0.9 0.6 0 1 0.5 1 1 0 0.6-1.6 1-3.5 1-3.2 0-3.5-0.2-3.5-3 0-2.2-0.5-3-1.7-3-1.6 0-1.8 1.3-1.8 12.3-0.1 6.7-0.5 13.9-0.9 16-0.8 3.5-0.8 3.7 1.8 3.7 1.4 0 2.7 0.6 2.7 1.3 0.3 2.8 3.7-13.2 3.8-17.5 0.1-3.4 0.5-4.8 1.5-4.8 2 0 2.6 3.6 1.9 11.5l-0.6 7 2-2.5c1.9-2.2 2.7-2.4 8.8-2.2 3.8 0.2 7.2 0.5 7.7 0.8 1.4 0.9 0.9 9.2-0.7 10.8-0.8 0.8-1.5 2.1-1.5 2.9 0 3.3-4.2 4.6-12.5 4z"/>
			<path id="p1EjmzXPpG" class="s1" d="m151.4 76.3c0.3-2.9 0.6-8.6 0.6-12.5 0-5.6 0.3-7.3 1.4-7.3 1.6 0 2.6 2.1 2.6 5.8 0 1.5 0.4 3.4 0.9 4.1 0.8 1.2 1.1 1 1.6-1 0.3-1.3 0.7-3.9 0.8-5.6 0.1-2.4 0.7-3.3 2-3.3 1.5 0 1.7 1.2 1.7 11 0 9.1-0.3 11-1.5 11-0.8 0-1.5-0.6-1.5-1.4 0-3.9-4.6-2.7-5.5 1.5-0.4 1.7-1.3 2.9-2.2 2.9-1.3 0-1.5-0.9-0.9-5.2z"/>
			<path id="p151nwiysG" class="s1" d="m-1 61.5c0-6.3 0.2-7 2-7 1.8 0 2 0.7 2 7 0 6.3-0.2 7-2 7-1.8 0-2-0.7-2-7z"/>
			<path id="pbY5RBaCF" class="s1" d="m78 59c0-2.1 0.5-2.5 3-2.5q3 0 3-1.5c0-0.8 0.6-1.5 1.3-1.5 0.7 0 1.9-0.9 2.7-2 1-1.3 2.6-2 5-2h3.5l-4 3.8c-4.1 3.7-6.7 5.3-11.7 7.2-2.6 0.9-2.8 0.8-2.8-1.5z"/>
			<path id="poSqPk60H" class="s1" d="m180.7 42.6c0.6-2.5-2.7-3.8-4.3-1.7-1.7 2.4-2.4 1.9-2.4-1.9 0-3.3 0.2-3.5 3.6-3.5 5.4 0 7.4 1.5 7.4 5.5 0 3-0.3 3.5-2.4 3.5-1.9 0-2.3-0.4-1.9-1.9z"/>
			<path id="p43cYJnZZ" class="s1" d="m101 36.6c0-4.2 1-6.1 3.1-6.1 2.2 0 2.3 1.1 0.7 5.7-1.5 4.1-3.8 4.4-3.8 0.4z"/>
			<path id="prz5sAziD" class="s1" d="m153 31.8c0-6 0.9-7.3 5.1-7.3 2.2 0 3.9 0.5 3.9 1 0 0.6 0.7 1 1.5 1 1 0 1.5 1.1 1.5 3.5 0 2.8-0.4 3.5-2 3.5-1.5 0-2-0.7-2-2.5 0-3.8-3.6-3.4-4.5 0.5-0.8 3.8-3.5 4-3.5 0.3z"/>
			<path id="pJQDBgWBZ" class="s1" d="m330.3 27.8c-3-0.4-3.4-0.9-5.3-7-1.1-3.6-2-9.3-2-12.9 0-7.4-1.7-6.8 16.5-6.5 13.5 0.2 22.7 1 23.9 2.1 0.5 0.5 1.5 0.6 2.4 0.2 1-0.3 0.7 0.3-0.6 1.6-2.4 2.4-2.9 4.2-1.2 4.2 1.5 0-3.7 5.1-5.4 5.4-0.7 0.1-2.5 0.9-3.9 1.9-1.5 0.9-3.2 1.7-3.9 1.7-0.7 0-2.6 0.9-4.2 1.9-1.7 1.1-3.3 1.8-3.6 1.6-0.3-0.2-2.6 1.2-4.9 3.1-2.4 1.9-4.4 3.3-4.5 3.2-0.1 0-1.6-0.3-3.3-0.5z"/>
			<path id="ppMZPBBWJ" class="s1" d="m103 20c0-3.9 1.4-4.6 3-1.6 1.6 3.1 1.2 5.1-1 5.1-1.6 0-2-0.7-2-3.5z"/>
			<path id="prH6ixGTK" class="s1" d="m141.7 20.5c-0.3-1.1-1.2-2-2-2-0.8 0-6.5-2.4-12.8-5.4-6.3-2.9-13.6-6.1-16.4-7-14-4.6-10-5.7 20.4-5.5 28.7 0.3 30.2 0.4 29.3 2.8-1.5 4.2-7.2 5.3-13.5 2.6-2.6-1-7.2-1.5-15.4-1.5h-11.8l10.5 5.1c5.8 2.8 11.7 5.3 13.3 5.6 2.3 0.5 2.7 1 2.7 3.9 0 2.7-0.4 3.4-1.9 3.4-1 0-2.1-0.9-2.4-2z"/>
			<path id="p1HLNfEVtL" class="s1" d="m100 4.5c0-1.1 0.4-2 0.8-2 0.4 0 0.8 0.9 0.9 2 0.1 1.1-0.2 2-0.8 2-0.5 0-0.9-0.9-0.9-2z"/>
			<path id="pLkiRuawZ" class="s1" d="m193 3c0-1.6 0.7-1.7 7.5-1.7 6.2 0 6.5 0.1 6.5 1.7 0 1.2-1.4 1.5-7 1.5-5.6 0-7-0.3-7-1.5z"/>
		</g>
	</g>
	<g id="l41Hpi7PtRFmHDQGv4IPEGp">
		<g>
			<path id="pBdXhTaNW" class="s2" d="m95 87.1c0-0.7 0.9-1.6 2-1.9 1.3-0.3 2 0 2 1 0 0.8 0.5 1.1 1 0.8 0.6-0.3 1-0.1 1 0.4 0 0.6-1.3 1.1-3 1.1-1.9 0-3-0.5-3-1.4z"/>
			<path id="poaTY1noQ" class="s2" d="m126 84.8c1.1-1.4 1.7-2.9 1.3-3.2-0.4-0.3-0.9-1.6-0.9-2.8-0.1-2 0.4-2.3 3.2-2.3 1.9 0 3.4 0.4 3.4 0.9 0 1.5 5.1 0.3 6.6-1.6 1.3-1.7 1.3-1.7 1.4 0.5 0 1.8 0.6 2.2 2.9 2.2 4.2 0 6.1 1 6.1 3.1 0 1.6-0.8 1.9-4.5 1.9-2.5 0-4.5 0.5-4.5 1 0 0.6-0.5 1-1.1 1-0.5 0-0.7-0.5-0.3-1.1 0.4-0.8 0-0.8-1.5 0-1.5 0.9-2.1 0.9-2.1 0.1 0-0.6-1.2-0.2-2.6 0.9-1.5 1.2-4.1 2.1-6.1 2.1h-3.4z"/>
			<path id="pASy9VCCP" class="s2" d="m79 84c0-1-1.1-1.5-3.5-1.5-1.9 0-3.5-0.4-3.5-0.9 0-0.5-1.3-1.1-2.9-1.4-1.6-0.3-3.5-1.2-4.2-2-0.8-0.7-2.6-1.7-4.1-2-1.5-0.4-3.3-1.4-4.2-2.2-0.8-0.8-2.3-1.5-3.3-1.5-3-0.1-5.3-2.5-5.3-5.7 0-2.9 0.3-3.1 4.8-3.7 13.7-1.9 19.8-3.2 21-4.3 0.7-0.7 2.4-1.3 3.8-1.3 1.3 0 2.4-0.4 2.4-1 0-0.5 1.1-1.2 2.5-1.6 1.4-0.3 2.5-1 2.5-1.5 0-0.5 1.7-0.9 3.8-0.9l3.7 0.1-4 3.4c-2.2 1.9-4.6 3.5-5.3 3.5-0.7 0-3 0.9-5 1.9-3.5 1.8-9.2 3.1-19.4 4.6-2.1 0.3-3.8 1-3.8 1.6 0 1.1 27.4 14.9 29.6 14.9 0.8 0 1.4 0.7 1.4 1.5 0 1-1.1 1.5-3.5 1.5-2.4 0-3.5-0.5-3.5-1.5z"/>
			<path id="p1Bnctz3b0" class="s2" d="m317 71.8c0-0.8 3.2-10.4 3.7-11.2 0.1-0.2 0.9 0.2 1.8 0.9 2 1.6 2.1 6.4 0.1 5.7-1.7-0.7-3.8 1.5-3.4 3.3 0.2 0.7-0.3 1.5-0.9 1.7-0.7 0.3-1.3 0.1-1.3-0.4z"/>
			<path id="pCmFoXSkh" class="s2" d="m94 48.2c0-2 0.4-3.7 0.9-3.7 0.4 0 1.9-2 3.2-4.5 1.3-2.5 2.7-4.5 3.1-4.5 1.3 0 2.1-12.9 0.9-14.4-0.7-0.8-1.4-3.7-1.8-6.5-0.9-7.4 1.6-6.8 4.5 1.1 2.7 7.8 2.8 11.7 0.1 19.3-2.8 8-4.2 10.5-7.8 13.9l-3.1 3z"/>
			<path id="pjEYo2KTM" class="s2" d="m290.6 37.8c-0.4-0.5-7.1-1.1-14.9-1.5-18.7-1-25.7-1.8-25.7-2.9 0-0.5-1.3-0.9-3-0.9-1.6 0-3-0.4-3-1 0-0.5-1.7-1-3.7-1-2.1 0-7.2-1.3-11.3-3-4.1-1.6-8.7-2.9-10.2-3-1.7 0-3.1-0.8-3.8-2-0.6-1.1-1.8-2-2.7-2-2.2 0-4.2-3-4.3-6.2 0-2.2-0.5-2.8-2.1-2.8-1.1 0-2.7-0.7-3.5-1.5-1.8-1.7-3.4-2-3.4-0.5 0 0.6-1.6 1-3.5 1-3.5 0-3.5 0-3.5-4.5v-4.6l11.3 0.2c15 0.2 29.4 2.2 26.8 3.8-1.2 0.8 8.2 4.1 15.6 5.6 6.1 1.2 9.4 6.2 5.6 8.4-1 0.6-1.3 1.1-0.8 1.1 0.6 0 0.3 0.5-0.5 1.1-1.2 0.8-1.2 1 0.5 0.8 1.1-0.1 3.4 0.4 5 1.1 2.2 0.9 4.3 1 8 0.2 3.6-0.7 5.2-0.7 5.7 0.2 0.5 0.7 0.8 0.7 0.8-0.3 0-0.8 0.3-1.2 0.6-0.8 0.3 0.3 1.7 0.2 3-0.3 3-1.2 4.2 0.6 2 2.8-1.5 1.5-1.8 1.5-2.6 0.2-0.8-1.2-1-1.2-1.6 0.3-0.4 1.1-1.8 1.7-4.3 1.8-2 0-3 0.3-2.3 0.6 0.6 0.2 1 0.8 0.8 1.2-0.5 0.8-0.1 0.9 5.4 1.5 8.2 0.9 12.7 1.5 14.1 2 0.7 0.3 3.1 0.8 5.2 1.1 4.4 0.6 7.7 2.1 7.7 3.5 0 1.2-6.3 1.3-7.4 0.3z"/>
			<path id="pqyCzQiED" class="s2" d="m247 8.4c-1.4-0.5-4.5-1.5-7-2.3-7.1-2.2-6.5-4 1.1-3.4 6.7 0.6 13.4 3.2 14.3 5.5 0.6 1.5-4.3 1.7-8.4 0.2z"/>
		</g>
	</g>
	<g id="l3v0z4L764OuS5KASIcUesn">
		<g>
			<path id="pieom4AA4" class="s3" d="m97 103.5c-3.6-0.4-7.5-1.1-8.7-1.5-1.5-0.5-2.3-0.3-2.3 0.4 0 1.4-2.7 1.5-3.2 0.1-0.3-1.1-1.8-1.2-14-1-5.1 0.1-8.8 0.6-8.8 1.1 0 0.6-0.5 0.7-1 0.4-0.6-0.4-3.4-0.9-6.3-1.1-2.9-0.2-8.3-1-12.2-1.8-6.8-1.4-17.6-3.3-32.2-5.7-4.4-0.7-7.4-1.8-7.8-2.6-0.3-0.8-0.8-4.6-1.1-8.4-0.6-6.5-0.6-6.9 1.3-6.9 1.7 0 2.1 0.8 2.5 5 0.3 2.8 0.8 5.3 1.1 5.6 0.3 0.3 3.4 0.9 6.9 1.4 3.5 0.4 7.6 1.3 9.2 1.9 2.9 1.2 22.6 4.1 27.3 4.1 1.3 0 3.2-0.9 4.3-2 2.5-2.5 9.2-2.7 16.4-0.5 3 0.9 5.3 1.1 6 0.6 0.6-0.5 2.8-1.2 4.8-1.6 2.1-0.4 3.6-1.1 3.3-1.5-0.3-0.4-5.1-3.1-10.7-6-15.3-7.7-18.8-10.1-18.8-12.7 0-2.7-0.4-2.9 16.5 5.2 12.3 5.9 17 7.7 20.5 8 3.8 0.3 9 1.8 9 2.7 0 0.5 0.5 0.6 1 0.3 0.6-0.3 1-0.2 1 0.3 0 1.8 9.1 6.7 12.2 6.5 3-0.2 8-3.5 12.7-8.3 1.4-1.5 2.8-2.8 3.1-2.8 1.3 0 7.6-4 9.5-5.9 2.6-2.7 3.5-2.9 3.5-0.8 0 0.9 0.9 1.5 2.5 1.5 2 0 2.5 0.5 2.5 2.6 0 2-0.4 2.4-1.9 1.9-2.3-0.7-15.1 6.1-20.7 11.1-2 1.8-4 3.5-4.3 3.6-0.3 0.2-1.7 1.7-3.2 3.3-1.4 1.7-3.2 3.2-4 3.4-2.5 0.7-9.3 0.8-15.9 0.1z"/>
			<path id="pt91udpHf" class="s3" d="m282.9 86.9c-3.6-3.9-6.9-5.3-18.2-7.5-5.6-1.1-11.8-2.8-13.7-3.8-1.9-1-5.7-2.4-8.4-3-5.7-1.4-16.6-6.7-16.6-8.1 0-1.1 4.9-1.4 7.4-0.4 0.9 0.3 1.6 1.2 1.6 2 0 0.8 0.9 1.4 2 1.4 3.2 0 16.3 3.9 17 5 0.4 0.6 5.6 2 11.6 3.1 6 1 12.4 2.4 14.3 3 3.1 1.1 3.5 0.9 5.6-1.7 1.3-1.6 2.6-4.7 2.9-6.9 1.6-10.4 1.8-12.7 0.7-13.8-0.6-0.6-1.1-2.6-1.1-4.3 0-3.6 2.9-6.4 6.7-6.4 4.6 0 3.1-1.9-2.4-3-3.2-0.6-7.9-1.5-10.4-2.1-2.5-0.5-11.7-1.6-20.5-2.3-14-1.2-16.8-1.7-23.4-4.5-8.9-3.9-20.2-7.1-24.9-7.1-3.7 0-11.1-1.9-12.6-3.2-0.5-0.4-1.7-0.8-2.7-0.8-1.4 0-1.8-0.8-1.8-3.9v-3.8l-6.9-0.6c-3.7-0.3-8.6-1.3-10.7-2.2-2.1-0.8-9.6-2-16.8-2.6-7.6-0.7-14-1.7-15.3-2.5-1.3-0.8-4.9-1.4-8.3-1.4-5.3 0-6-0.2-6-2 0-1.8 0.7-2 7-2 4 0 8.6 0.6 10.6 1.5 3.2 1.3 3.8 1.3 5.7 0 2.9-2 39.7-2.2 39.7-0.2 0 0.7 0.3 0.8 0.8 0.2 0.4-0.5 1.8-1.1 3.2-1.2 1.4-0.1 1.9 0.1 1.3 0.3-1.9 0.8 1.4 3.7 3.3 3 0.8-0.3 1.2-0.2 0.9 0.4-0.3 0.6 0.3 1 1.4 1 3.9 0 5.1 1.1 5.1 4.6 0 2.2 0.6 3.7 1.5 4 0.8 0.4 1.2 1.1 0.8 1.7-0.3 0.6-0.1 0.7 0.5 0.3 0.7-0.4 2.2 0.4 3.6 1.8 1.3 1.4 3.4 2.6 4.7 2.6 1.3 0.1 5.6 1.3 9.4 2.8 5 2 7.9 2.6 9.8 2.1 1.5-0.4 2.9-0.3 3.2 0.1 0.3 0.5 1.4 0.7 2.5 0.5 1.1-0.2 2 0 2 0.5 0 0.4 1 0.6 2.3 0.3 1.8-0.4 1.9-0.3 0.7 0.6-1.2 0.9-1.1 1.1 0.8 1.1 1.2 0 2.2 0.5 2.2 1.1 0 0.8 0.4 0.8 1.4 0 0.8-0.7 1.7-0.8 2-0.3 1 1.7 13.6 3.6 13.6 2.1 0-0.4 1.2-0.4 2.8 0 1.5 0.4 5.3 0.9 8.4 1 7.1 0.2 17.9 3.4 20.2 6 1.2 1.3 1.6 3.2 1.4 5.7-0.3 3.6-0.5 3.9-5 5.2-2.7 0.7-4.8 1.7-4.8 2.2 0 1 0.3 1.1 15 4.6 6.6 1.5 12 3.4 12.6 4.3 1.3 1.6 0.7 4.4-0.6 3.6-0.5-0.3-1.6 0.5-2.4 1.7-1.9 2.7-2.1 1.9-0.4-1.7 1.6-3.6 0-4.5-8.4-4.5-8.5 0-9.8 0.5-9.8 4.1 0 1.6-0.5 2.9-1.2 2.9-0.6 0-0.9 0.3-0.5 0.6 0.3 0.3-0.5 1.7-1.9 3.1-2.1 2-2.5 3.4-2.3 7.2 0.2 6.8 0.2 7-3.3 9.1-4.3 2.6-6 2.5-8.9-0.6z"/>
			<path id="p1DvrT2pto" class="s3" d="m169 84c0-3.8 0.3-4.5 2-4.5 2.1 0 2.6 2.3 1.4 6.8-1.1 4.1-3.4 2.6-3.4-2.3z"/>
			<path id="pIIoqAcRS" class="s3" d="m152.6 73.8c-1-6.6-0.8-8.3 1.4-8.3 1.3 0 1.8 0.5 1.4 1.5-0.4 1.1 0 1.5 1.6 1.5 1.3 0 2.4-0.8 2.7-2 0.9-3.5 3.3-2.4 3.3 1.6 0 3.2-0.4 3.7-4 5.1-2.2 0.9-4 2.2-4 3 0 2.9-1.8 1.1-2.4-2.4z"/>
			<path id="pbiqwjyDH" class="s3" d="m-3.7 70.5c0-3.6 0.2-5 0.4-3.2 0.2 1.7 0.2 4.7 0 6.5-0.2 1.7-0.4 0.3-0.4-3.3z"/>
			<path id="p17IFdFFyF" class="s3" d="m169.6 64.4c-0.4-3.4-0.6-6.3-0.3-6.5 0.2-0.2 1.2 0.4 2.3 1.4 1.4 1.3 3 1.7 5.7 1.4 4-0.5 4.9-2.1 1.7-2.9-3.1-0.8-2.5-3.3 0.8-3.3 4 0 8.1 2.2 8.5 4.5 0.2 1.1 0.5 0.3 0.6-1.7 0.1-3.1 0.5-3.8 2.1-3.8 1.6 0 2-0.7 2-3.6v-3.7l4.9 0.6c5.7 0.7 12.1 4.4 12.1 7 0 1.1 0.8 1.7 2.5 1.7 1.3 0 4.3 0.7 6.5 1.6 3.1 1.3 4 2.1 4 4 0 1.3-0.2 2.4-0.4 2.4-0.2 0-2.7-1.1-5.5-2.4-5.1-2.3-5.3-2.3-9.9-0.6-2.6 0.9-8.2 2.3-12.4 3-4.3 0.7-7.8 1.5-7.8 1.8 0 0.3 0.8 1.1 1.8 1.8 1.5 1.2 1.2 1.3-2.5 1.4-3.5 0-4.2-0.3-4.6-2.2-0.3-1.7-0.5-1.4-0.6 1-0.1 2.1-0.6 3.2-1.6 3.2-0.8 0-1.5-0.6-1.5-1.4 0-0.8-0.4-1.7-0.9-2-1.4-0.9-4.1 0.4-4.1 2 0 0.8-0.6 1.4-1.4 1.4-0.9 0-1.6-1.9-2-6.1zm31.3-8.6l4.4-0.6-3.4-2.8c-1.9-1.6-3.7-2.9-4.2-2.9-0.8 0-4.7 6-4.7 7.4 0 0.4 0.8 0.5 1.7 0.2 0.9-0.4 3.7-1 6.2-1.3z"/>
			<path id="p1Hg8oGVCs" class="s3" d="m-0.4 58.3c-0.3-1.3-0.6-5.1-0.6-8.5 0-5.6 0.2-6.3 1.9-6.3 1.1 0 2.3 0.4 2.6 1 1.1 1.8-0.7 16-2 16-0.7 0-1.5-1-1.9-2.2z"/>
			<path id="pKjyZyTVU" class="s3" d="m86 54.6c0-2.4 0.4-3.1 2-3.1 1.1 0 2-0.7 2-1.5 0-0.8 0.7-1.5 1.5-1.5 0.8 0 1.5-0.5 1.5-1.1 0-2 3-4 5.5-3.7l2.6 0.3-3.8 4.1c-2.1 2.3-5.5 5.4-7.5 6.9l-3.8 2.7z"/>
			<path id="pt5Gw4Gqz" class="s3" d="m181.4 42c0.3-0.9-0.3-1.9-1.6-2.6-1.7-0.9-2.3-0.8-3 0.5-1.5 2.7-2.8 1.8-2.8-1.9 0-3.2 0.2-3.5 3-3.5 5.3 0 8 1.9 8 5.7 0 2.7-0.4 3.3-2.1 3.3-1.5 0-1.9-0.5-1.5-1.5z"/>
			<path id="pm9Anxpqt" class="s3" d="m100 38.1c0-3.2 0.3-3.6 2.5-3.6 2.4 0 2.5 0.1 1.2 3.2-1.9 4.6-3.7 4.8-3.7 0.4z"/>
			<path id="pWBPtOIcF" class="s3" d="m161.4 31c0.3-0.8-0.3-1.9-1.4-2.5-2.5-1.3-2.8-1.3-3.3 0.8-0.3 0.9-0.5 0.2-0.6-1.5-0.1-3 0.2-3.3 2.8-3.3 4.9 0 6.1 0.9 6.1 4.6 0 2.8-0.4 3.4-2.1 3.4-1.5 0-1.9-0.5-1.5-1.5z"/>
			<path id="pfnSK6yKj" class="s3" d="m101.6 20.3c-1.6-6.1 0.1-10.2 2.4-5.8 0.6 1.1 0.7 2 0.3 2-0.4 0-0.2 0.5 0.5 1.2 0.7 0.7 1.2 2 1.2 3 0 2.7-3.6 2.3-4.4-0.4z"/>
			<path id="pG7olJ6fl" class="s3" d="m130.4 14.2c-4.9-2.4-12.8-5.9-17.6-7.7-4.9-1.9-8.8-3.8-8.8-4.3 0-1.1 8.2 0 14.3 2 2.6 0.8 4.7 1.9 4.7 2.4 0 0.5 0.8 0.9 1.8 0.9 0.9 0 5.4 1.7 9.9 3.7 5.7 2.6 8.2 4.3 8.3 5.6 0 2.7-2.8 2.1-12.6-2.6z"/>
			<path id="pvQbnqC51" class="s3" d="m205.7 3.8c-1.4-1.4-0.6-2.3 2.1-2.2 1.6 0 2.1 0.3 1.2 0.6-0.8 0.3-1.8 1-2.1 1.5-0.3 0.4-0.8 0.5-1.2 0.1z"/>
		</g>
	</g>
	<g id="l1iuvuxhH6DM4x1LeD0RHjY">
		<g>
			<path id="ptXoRymmr" class="s4" d="m180.2 98.8c-4.3-2.5-4.4-2.7-3.8-6.7 0.3-2.3 0.9-8.9 1.2-14.8 0.6-9.8 0.5-10.6-1.2-11.1-1.1-0.3-0.2-0.5 1.9-0.6l3.7-0.1-0.1 8.3c0 4.5-0.4 10.6-0.8 13.5-0.7 4.7-0.5 5.5 1.3 6.8 1.9 1.3 2.1 1.2 3.3-2.9 0.7-2.3 1.3-5.4 1.3-6.9 0-2.1 0.5-2.8 2-2.8 2.5 0 2.5 2.7 0.2 12.5-1.1 4.5-2.3 7.1-3.2 7.2-0.8 0.1-3.5-0.9-5.8-2.4z"/>
			<path id="pZJ1QbhXM" class="s4" d="m164 90.6c-6-2.9-6-2.9-4.5-12.3 0.7-4.5 0.6-4.8-1.4-4.8-2.3 0-4.1 3.3-4.1 7.6 0 3.7-2.4 3.9-8.8 0.8-3.1-1.6-5.9-2.9-6.1-3.1-0.2-0.1 0.4-3 1.3-6.3 1.2-4.1 1.7-9.2 1.5-16.1-0.1-5.5 0.1-10.2 0.4-10.5 0.9-0.9 9.4 2.6 11.1 4.5 1.5 1.7 2.9 13.1 1.9 16.9-0.3 1.2-1.1 2.2-1.8 2.2-0.8 0-1.4-2.5-1.9-7.2-0.6-6.8-2-9.8-4.7-9.8-0.3 0-0.9 5.1-1.1 11.3-0.3 6.1-0.9 12-1.3 13-0.6 1.4-0.2 1.7 2.4 1.7 2.7 0 3.2-0.4 3.7-2.9 0.5-2.5 1.1-2.9 5.1-3.5 8.8-1.2 8.5-1.4 8.2 6-0.2 5.6 0.1 6.8 1.6 7.7 1.4 0.7 2 0.7 2.3-0.1 0.2-0.7 1.2-1.2 2.3-1.2 1.5 0 1.9 0.7 1.9 3.4 0 5.2-1.7 5.8-8 2.7z"/>
			<path id="p17UWLjD16" class="s4" d="m-0.7 77.5c0-2.5 0.2-3.5 0.4-2.2 0.2 1.2 0.2 3.2 0 4.5-0.2 1.2-0.4 0.2-0.4-2.3z"/>
			<path id="pa3k500tw" class="s4" d="m187 74.1c0-1.4-0.4-2.8-1-3.1-1-0.6-1.5-5.5-0.5-5.5 0.2 0 1.6 0.5 3 1.2 2.1 0.9 2.5 1.8 2.5 5.5 0 3.6-0.3 4.3-2 4.3-1.5 0-2-0.7-2-2.4z"/>
			<path id="p4BYtXY1y" class="s4" d="m159.7 60.8c-0.2-3.2-0.2-6.1 0.2-6.5 1.2-1.3 8 1.5 10.8 4.5l2.8 2.9-4.7-0.4c-4.7-0.3-4.8-0.2-4.8 2.4 0 2.1-0.5 2.8-1.9 2.8-1.5 0-1.9-1-2.4-5.7z"/>
			<path id="pg7KWvBkf" class="s4" d="m62 63.7c0-1.3 1.4-2.1 5.3-3 6.1-1.4 10.7-1.6 10.7-0.4 0 1.1-3.8 3-7.5 3.8-7.6 1.4-8.5 1.4-8.5-0.4z"/>
			<path id="p1E5S4McpD" class="s4" d="m81 57.4c0-1.5 0.7-1.9 3.7-1.9 3.6 0 3.6 0 1.7 1.8-2.6 2.5-5.4 2.6-5.4 0.1z"/>
			<path id="pfmBqd1eW" class="s4" d="m181.5 58.5c-0.3-0.5-1.6-1-2.7-1-1.9 0-2-0.4-1.4-4.7 0.3-2.6 1.5-6.5 2.7-8.6 1.1-2.2 1.9-4.1 1.7-4.2-0.2-0.1-1.3-0.7-2.4-1.3-2-1.1-2.3-0.7-4.3 5.4-1.1 3.5-2.1 7.1-2.1 7.9 0 2.2-3.4 1.8-9-1-5.7-2.9-6-4.1-3.6-15.5 1.4-6.5 1-7.9-2.1-8-1.3 0-1.9 2.5-2.8 11.8-0.4 3.4-1.1 6.4-1.6 6.7-0.8 0.6-8.8-3.4-11.6-5.7-1.4-1.2-1.6-8.3-0.4-16.5 0.6-4 0.4-5.3-0.5-5.3-0.7 0-1.6-0.4-1.9-1-0.4-0.6 0.9-1 3.1-1h3.7l-0.6 9.8c-0.7 9.8-0.7 9.9 1.9 11.2 2.2 1.2 2.7 1.2 3.4 0 0.6-0.8 1-2.5 1-3.6 0-1.2 0.3-3.6 0.6-5.3 0.6-2.7 1-3.1 4-3.1 1.9 0 3.4 0.5 3.4 1 0 0.6 1.2 1 2.6 1h2.7l-0.7 6.9c-0.3 3.8-0.9 7.6-1.2 8.4-0.4 1.1 0.5 2.1 2.5 3.1l3 1.6 1.2-4.2c0.6-2.4 1.6-4.9 2.1-5.5 1.2-1.5 7.8-1.7 7.8-0.3 0 0.6 1.1 1 2.5 1 2.2 0 2.5 0.4 2.5 3.4 0 1.8-0.6 4.8-1.4 6.7-0.8 1.8-1.1 4.9-0.9 7.1 0.5 3.7 0.1 4.8-1.2 2.8z"/>
			<path id="pv3VAwEiD" class="s4" d="m190.2 54.3c0.3-3.9 0.6-4.3 3.1-4.6 3.2-0.4 3.2-0.1 1 4.1-0.9 1.8-1.6 3.5-1.5 4 0.1 0.4-0.5 0.7-1.4 0.7-1.2 0-1.4-0.9-1.2-4.2z"/>
		</g>
	</g>
	<g id="l1CzYjRRBwyOgzt9l9Mqoz4">
		<g>
			<path id="plD1j28tg" class="s5" d="m112 99.6c0-0.6 1.7-2.3 3.8-3.8 2-1.5 6.2-4.8 9.2-7.4 3-2.5 7.4-5.7 9.8-6.9 2.3-1.3 4.2-3 4.2-3.8 0-1 0.7-1.3 2.3-0.8 1.2 0.3 3.2 0.6 4.5 0.6 1.7 0 2.2 0.6 2.2 2.4 0 2.3-0.2 2.4-3 1.5-2.6-1-3.8-0.6-11.2 4-4.6 2.7-11 7.3-14.3 10-5.9 5.1-7.5 6-7.5 4.2z"/>
			<path id="ppRh8uFcd" class="s5" d="m37.5 96.8c-6.6-0.7-14.7-2-18-2.9-3.3-0.9-7.3-1.8-9-2-8.6-1.2-9.3-1.5-9.9-3.7-0.3-1.2-0.6-2.8-0.6-3.4 0-1.8 2.8-1.6 4.6 0.2 0.9 0.8 3.3 1.5 5.4 1.5 3.6 0 5.4 0.5 11.5 3.1 2.9 1.2 14.2 2.9 19.8 2.9 4.1 0 5.2-0.5 7.7-3.1 2.7-3 3.2-3.1 8.5-2.7 4 0.3 5.1 0.2 3.8-0.5-3.9-2.1-8.3-7.1-8.3-9.6 0-1.8-1-3.3-3-4.6-2.3-1.5-3-2.8-3-5.1 0-2.8 0.3-3.2 3.8-3.8 6-1 8.2-0.7 8.2 0.9 0 1-1.4 1.7-4.1 2.1l-4 0.7 6.1 3.9c3.4 2.1 11.1 6.4 17.1 9.6 11.5 6 12.8 6.7 16.9 9.4 1.4 0.8 4.2 2.1 6.3 2.8 2 0.6 3.7 1.8 3.7 2.6 0 1.8-11 2-14.3 0.3-2.9-1.6-7.1-1.4-10.1 0.6-2.3 1.5-2.9 1.5-9.4-0.4-8.1-2.5-10.8-2.6-11.5-0.7-1.1 2.8-5.9 3.3-18.2 1.9z"/>
			<path id="pwWK3hlrg" class="s5" d="m169 81.5c0-3.3 0.3-4 2-4 2.1 0 2.5 1.6 1.4 5.8-1.1 3.9-3.4 2.7-3.4-1.8z"/>
			<path id="pN9Rh9szT" class="s5" d="m279.2 82.9c-2-1.3-8.3-2.9-19.4-4.8-2.4-0.4-3.8-1.2-3.8-2.1 0-1.7 2.4-1.9 10.1-0.6 14 2.4 14.3 2.4 17.6-0.8 1.7-1.6 3.4-4.4 3.9-6.3 1.1-5 0.4-12-1.3-13.3-1.1-0.8-1.4-2.4-1.2-5.2l0.4-4.1-10-2.1c-5.5-1.2-12-2.3-14.5-2.6-21.2-2.2-24.6-2.8-31-6.1-3.6-1.8-7.7-3.6-9.2-3.9-1.6-0.4-2.8-1.1-2.8-1.5 0-0.5-1.2-1-2.7-1.2-2-0.2-2.9-0.9-3.1-2.5-0.3-2 0.1-2.3 3.5-2.3 5.1 0 16.1 3.1 25.3 7.1 6.6 2.8 9.4 3.3 23.4 4.5 8.8 0.7 18 1.7 20.5 2.3 16.6 3.5 16.6 3.5 16.9 5.9 0.4 3-1.4 5.2-4.3 5.2-1.3 0-3.3 0.9-4.6 1.9l-2.4 1.9 3 1.2c1.7 0.6 5.3 1.6 8 2.1 2.8 0.5 7 1.6 9.5 2.4 4.5 1.4 4.4 1.4-6.9 1.4l-11.3 0.1 0.6 2.5c0.4 1.4 0 4.1-0.9 6.1-0.8 2-1.5 4.9-1.5 6.4 0 1.7-1.2 4-3.5 6.3-4 4.1-5.1 4.4-8.3 2.1z"/>
			<path id="puaYPvxDq" class="s5" d="m-0.6 79c-0.9-4.7 0.3-10.5 2.1-10.5 1.2 0 1.5 1.5 1.5 7 0 5.5-0.3 7-1.5 7-0.8 0-1.7-1.4-2.1-3.5z"/>
			<path id="p1Dqkao2ML" class="s5" d="m152 74v-3.5h6 6v3.5c0 3.9-2.4 5-3.3 1.5-0.3-1.2-1.4-2-2.6-2-1.1 0-2.6 0.9-3.3 2-1.9 2.9-2.8 2.4-2.8-1.5z"/>
			<path id="pt9AcyNmV" class="s5" d="m15 71.4v-5l4.3 0.3 4.2 0.3 0.3 4.8 0.3 4.7h-4.5-4.6z"/>
			<path id="p1HDHb0u8Q" class="s5" d="m169 72c0-2.8 0.4-3.5 2-3.5 1.6 0 2 0.7 2 3.5 0 2.8-0.4 3.5-2 3.5-1.6 0-2-0.7-2-3.5z"/>
			<path id="p1AGQt1FzE" class="s5" d="m240 71.6c-5.8-1.9-10-4.1-10-5.3 0-1.4 4.4-0.9 11.7 1.4 5.4 1.7 7.3 2.8 7.3 4.1 0 2.1-1.9 2.1-9-0.2z"/>
			<path id="p1G0EVZmmc" class="s5" d="m183 66.1c0-2.8-0.4-3.5-2.2-3.9-1.7-0.3-1.4-0.5 1-0.6 3-0.1 4.8-2.1 1.9-2.1-0.8 0-2.2-0.9-3.2-2-1.8-2-1.7-2 1.8-2 3.6 0 3.7 0.1 3.7 3.5 0 2.4 0.5 3.5 1.5 3.5 0.8 0 1.5-0.6 1.5-1.4 0-1.4 2-2.6 5-3.1 0.8-0.2 3.9-0.8 6.9-1.4 2.9-0.6 5.6-1.1 6-1.1 0.3 0-1.4-1.4-3.9-3-2.5-1.6-5.1-3-5.7-3-0.7 0-1.3-0.7-1.3-1.5 0-1 1.1-1.5 3.5-1.5 2.8 0 3.5 0.4 3.5 2 0 1.6 0.7 2 3 2 2.3 0 3.1 0.5 3.6 2.5 0.3 1.4 1 2.5 1.5 2.5 0.5 0 0.9 0.6 0.9 1.4 0 1-2 1.9-5.7 2.6-3.2 0.7-7.8 1.8-10.2 2.6-2.5 0.8-6 1.4-7.8 1.4-4 0-4.1 0.4-0.5 3.5l2.7 2.4-3.7 0.1c-3.7 0-3.8-0.1-3.8-3.4z"/>
			<path id="prEi4MCzM" class="s5" d="m60 63.7c0-1.4 1.8-2.1 8.5-3.7 4.7-1 8.5-2.3 8.5-2.7 0-0.4 1.4-0.8 3-0.8q3 0 3-1.5c0-0.8 0.9-1.5 2-1.5 1.1 0 2-0.7 2-1.5 0-0.8 0.8-1.5 1.9-1.5 1 0 2.1-0.9 2.4-2 0.3-1.4 1.4-2 3.1-2 2.2 0 2.6-0.4 2.6-3 0-2.5 0.4-3 2.5-3 3.3 0 3.2 1-1 6-7.2 8.6-17.4 14.6-29.9 17.5-7.9 1.9-8.6 1.9-8.6-0.3z"/>
			<path id="p17mItjEd6" class="s5" d="m-0.5 55.1c-0.4-1.9-0.2-4.3 0.4-5.4 0.7-1.4 0.8-2.3 0.1-2.7-2-1.2-0.9-2.5 2-2.5 2.8 0 3 0.3 3 3.4 0 1.9-0.4 3.8-1 4.1-0.5 0.3-1 1.9-1 3.6 0 4.2-2.7 3.8-3.5-0.5z"/>
			<path id="p18umWQmuZ" class="s5" d="m101 36.1c0-5.2 1.2-8.6 3.1-8.6 2.3 0 2.5 2.7 0.5 7.5-1.7 4-3.6 4.6-3.6 1.1z"/>
			<path id="p1q36I0xg" class="s5" d="m102 20.5c0-1.6-0.4-3-1-3-0.5 0-1-1.6-1-3.6 0-5 2-3.9 4.2 2.2 2.3 6.3 2.3 7.4-0.2 7.4-1.6 0-2-0.7-2-3z"/>
			<path id="pyBSex019" class="s5" d="m143 20.1c0-0.8-1.3-1.7-3-2.1-4.3-0.9-3.9-3.5 0.5-3.5 3.3 0 3.5 0.2 3.5 3.5 0 1.9-0.2 3.5-0.5 3.5-0.3 0-0.5-0.6-0.5-1.4z"/>
			<path id="pLZTipsIw" class="s5" d="m196 19.5c0-1.7-0.7-2-4.3-2-2.4 0-6.6-0.7-9.3-1.5-2.7-0.8-6.5-1.5-8.4-1.5-2 0-4-0.4-4.5-0.8-0.9-0.8-4.1-1.8-11.2-3.7-1.4-0.4-2.3-1.4-2.3-2.6 0-1.6 0.7-1.9 4.3-1.8 6.5 0.2 16.8 1.9 21 3.5 2.1 0.8 6.6 1.6 10 1.9 7.8 0.6 12.4 2.1 13.7 4.5 1.5 2.8 1.2 3.3-1.4 2.8-1.4-0.3-3.1-0.1-3.8 0.3-0.9 0.6-0.7 0.9 0.9 0.9 1.2 0 2.5 0.5 2.8 1 0.4 0.6-1 1-3.4 1-3.4 0-4.1-0.3-4.1-2z"/>
			<path id="pSVnf7iYb" class="s5" d="m122.3 10c-4.3-1.8-4.2-3.5 0.2-3.5 3.1 0 3.5 0.3 3.5 2.5 0 1.4-0.1 2.5-0.2 2.5-0.2-0.1-1.8-0.7-3.5-1.5z"/>
			<path id="p17GfvO1Or" class="s5" d="m131 3.5c0-2.1 1-2.4 4.8-1.4 3.6 1 2.7 3.4-1.3 3.4-2.8 0-3.5-0.4-3.5-2z"/>
			<path id="pM1JQpTsD" class="s5" d="m105.4 3c-1.9-1.4-1.8-1.4 0.4-1.5 1.3 0 2.2 0.6 2.2 1.5 0 1.9-0.1 1.9-2.6 0z"/>
		</g>
	</g>
	<g id="lYYcm8UViwNflstHKniEWH">
		<g>
			<path id="pBqOt6xgD" class="s6" d="m182.8 99.1c-2.1-1.6-2.3-2.6-0.5-2.6 1.9 0 4.7-11.7 4.7-19.3 0-5.9-0.2-6.5-2.2-7.1-1.3-0.3-2.4-0.1-2.6 0.4-0.8 2.2-2.9 0.8-4-2.7-1.9-6.2 0.3-6.9 7.1-2.3 2.5 1.6 4.7 3.6 4.9 4.2 2.1 6.1-1.6 30.9-4.6 30.8-0.6 0-1.9-0.7-2.8-1.4z"/>
			<path id="pLVTlzt6t" class="s6" d="m177.5 87.8c1.1-8.6 1.6-10.3 3.1-10.3 1.6 0 1.7 1.9 0.8 9.8-0.6 4.2-1 5.2-2.6 5.2-1.7 0-1.9-0.5-1.3-4.7z"/>
			<path id="pe2LmNe1L" class="s6" d="m168 87c0-2.8 0.4-3.5 2-3.5 2.1 0 2.4 1 1.4 4.8-1 3.6-3.4 2.7-3.4-1.3z"/>
			<path id="ptMksontT" class="s6" d="m26.3 86.4c-1.8-0.5-4-2.1-5-3.5-0.9-1.4-2.7-3-4.1-3.5-3.1-1.2-2.4-3.3 1.4-3.9 4.9-0.8 4.5-7.3-0.6-10-1.4-0.7-2.3-0.1-4.3 3.1-1.5 2.2-2.1 3.7-1.4 3.4 0.7-0.3 0.2 0.2-1 1.1-1.3 0.9-2.3 2.1-2.3 2.6 0 1.8-4.8 6.1-6.3 5.5-1.7-0.6-2.6-5.7-1.9-10.9 0.5-3.7 1.5-4.8 2.7-2.8 0.3 0.6 1.5 1 2.6 1 1.8 0 2.5-1.2 1.9-3.5-0.1-0.5-0.3-1.6-0.3-2.2 0-0.7-0.6-1.3-1.3-1.3-0.7 0-1.5 0.6-1.8 1.3-0.5 0.9-0.7 0.9-1.2-0.1-0.3-0.6-0.9-1-1.3-0.8-0.8 0.5-1.3-2.2-1.5-7.9-0.1-3.7 0.1-4 2.7-4 3.6 0.1 3.4-0.3-0.8-2.1l-3.5-1.4v-15.3c0-16.4 0.5-19.7 2.6-19.7 1.1 0 1.4 2.9 1.4 15.3 0 17.5 0.4 19.7 3.3 19.7 2.7 0 8.7 2.2 8.7 3.2 0 0.4 1 0.8 2.3 0.8 4.3 0 6.7 2.7 6.7 7.6 0 3.7 0.4 4.6 2.4 5.5 1.3 0.6 3.1 2.8 4 4.8 1.5 3.1 2.4 3.8 7.6 5.4 3.3 0.9 6.4 1.7 7 1.7 0.6 0 1-2.5 1-5.9 0-5.8 0.1-5.9 3.1-6.5 5.5-1.1 8.9-0.7 8.9 0.9q0 1.5-4.2 2.1l-4.1 0.7 2.6 2.3c3.1 2.7 3.4 3.9 1 4.8-1.4 0.6-1 1.4 2.6 4.6 5.7 5.2 5.1 6.6-2.6 6.2-3.3-0.2-8.7 0.4-12.1 1.2-6.7 1.8-10.1 1.9-14.9 0.5zm-10.3-32.4c-3.3-1.9-4.9-1.9-2.4 0 1 0.8 2.6 1.4 3.4 1.4 0.9 0 0.4-0.6-1-1.4z"/>
			<path id="puWErglL" class="s6" d="m144.3 80.9c-5.7-2.5-6-3-3.9-5.6 1.6-2.2 2.6-2.3 2.6-0.3 0 0.8 0.9 1.5 2 1.5 1.1 0 2 0.7 2 1.5q0 1.5 3 1.5c2.3 0 3 0.4 3 2 0 2.6-2.1 2.5-8.7-0.6z"/>
			<path id="paL5TKHaU" class="s6" d="m151 74c0-2.8 0.4-3.5 2-3.5 2.1 0 2.4 1 1.4 4.8-1 3.6-3.4 2.7-3.4-1.3z"/>
			<path id="pUnitFm7T" class="s6" d="m255.7 76.4c-1.5-0.4-3.4-1.4-4.3-2.3-0.8-0.9-2.6-1.6-3.8-1.6-4.9 0-28.6-10-28.6-12 0-1.9 6-0.9 12.7 2.1 5.9 2.7 7.5 3 12.6 2.5 3.5-0.3 7-1.4 8.7-2.6 1.5-1.1 3.4-2 4.2-2 3.1 0 9.2-2.9 9.8-4.6 0.6-1.5-0.4-2.2-5.9-4-8.8-2.9-9.6-3-24.1-4.9-6.9-0.9-14.5-2.5-16.9-3.6-2.4-1-6.8-2.2-9.7-2.5l-5.4-0.7v-4.3c0-3 0.5-4.6 1.7-5.2 1.9-1.1 1.1-4.2-1.2-4.2-0.8 0-1.5-0.9-1.5-2 0-2.3 1.3-2.5 6.1-0.9 5 1.7 5.1 2.1 2.4 6.1-3 4.4-3 4.8-0.6 4.1 1.9-0.5 10.4 1.6 15.9 3.9 3.6 1.5 3 1.3 8.7 2.2 8 1.1 19.6 3.6 25 5.2 2.8 0.9 5.5 1.6 6 1.5 0.6 0 1.7 0.7 2.6 1.5 0.8 0.7 6.2 2.5 11.9 4 5.7 1.4 11.1 2.9 11.9 3.4 2.4 1.3-3.1 2.4-8.4 1.5-6.1-0.9-8.5 0-8.5 3.2 0 1.5-1.2 3.6-3 5.3-1.7 1.6-3.1 3.3-3 3.7 0 0.4-0.3 0.8-0.7 0.9-2.1 0.2-4.2 1.7-3.7 2.5 0.3 0.5 0.2 0.8-0.3 0.7-1.2-0.4-5.4 2.8-4.7 3.5 0.8 0.7-2.4 0.5-5.9-0.4z"/>
			<path id="p7AGW49Bk" class="s6" d="m160.9 75.3c-0.1-0.7-0.3-5.5-0.4-10.5-0.2-8.5-0.1-9.3 1.6-9.3 1.7 0 1.9 0.9 1.9 10.5 0 8.7-0.3 10.5-1.5 10.5-0.8 0-1.6-0.6-1.6-1.2z"/>
			<path id="pIAMfJGkG" class="s6" d="m169 67.1c0-1.9-0.4-3.8-1-4.1-0.5-0.3-1-1.7-1-3 0-2.1 0.3-2.3 2.3-1.6 1.2 0.4 2.3 1.8 2.5 3 0.2 1.4 1.1 2.1 2.5 2.1h2.1l-2.2 2c-1.2 1.2-2.2 2.7-2.2 3.5 0 0.8-0.7 1.5-1.5 1.5-1 0-1.5-1-1.5-3.4z"/>
			<path id="ph0tq0Og9" class="s6" d="m59 63.5c0-1.6 0.7-2 3.5-2 4 0 4.9 2.4 1.3 3.4-3.8 1-4.8 0.7-4.8-1.4z"/>
			<path id="pFsTAGxbW" class="s6" d="m68 61.5c0-1.6 0.7-2 3-2 1.7 0 3-0.4 3-1 0-0.5 1.1-1 2.5-1 1.4 0 2.5-0.4 2.5-1 0-0.5 1.1-1.2 2.5-1.6 1.4-0.3 2.5-1 2.5-1.5 0-0.5 0.9-0.9 2-0.9 1.1 0 2-0.7 2-1.5 0-1 1.1-1.5 3.5-1.5 1.9 0 3.5 0.2 3.5 0.5 0 1.4-11.6 8.8-17.3 11-8.1 3-9.7 3.1-9.7 0.5z"/>
			<path id="peh5Cy9eu" class="s6" d="m185.8 59.9c-4.1-2.2-3.4-3.4 1.8-3.4 4.1 0 4.5 0.2 4.2 2.2q-0.6 4.2-6 1.2z"/>
			<path id="pW01p6EPG" class="s6" d="m213.5 58.5c-2.2-1.1-6.5-3.8-9.5-6-3-2.2-5.8-4-6.2-4-0.4 0-1.8 1.6-3 3.5-2.9 4.4-3.8 4.4-3.8 0 0-1.9 0.5-3.5 1-3.5 0.6 0 1-0.6 1-1.4 0-3.2 8.9-3.7 9.7-0.6 0.3 1.1 1.4 2 2.4 2 1.2 0 1.9 0.7 1.9 2 0 1.6 0.7 2 3 2 1.8 0 3.3 0.6 3.6 1.5 0.4 0.8 1.5 1.5 2.5 1.5 1.4 0 1.9 0.7 1.9 2.5 0 1.4-0.1 2.5-0.2 2.5-0.2 0-2.1-0.9-4.3-2z"/>
			<path id="pjNNgGf3L" class="s6" d="m179.3 56.8c-2.1-0.8-1.5-4.3 0.7-4.3 1.5 0 2 0.7 2 2.5 0 2.5-0.4 2.8-2.7 1.8z"/>
			<path id="pc886CUC0" class="s6" d="m96 45.3c0-2.1 0.4-3.8 0.9-3.8 0.5 0 1.9-3.4 3.2-7.5 1.8-5.5 2.9-7.5 4.2-7.5 0.9 0 1.7 0.6 1.7 1.4 0 3.7-4.3 14.5-6.9 17.6l-3 3.5z"/>
			<path id="pIc5tCMqo" class="s6" d="m181.9 42.3c0.6-1.7 0.3-2.6-1.5-4-1.2-1-2.4-1.8-2.6-1.8-0.2 0-1.2 1.6-2.2 3.5-1.1 1.9-2.3 3.5-2.8 3.5-1.4 0-0.9-6.8 0.7-8.4 0.8-0.8 1.5-1.9 1.5-2.5 0-0.6 0.5-1.1 1-1.1 0.6 0 1-0.7 1-1.5 0-0.8 0.4-1.5 0.8-1.5 0.4 0 1.4-1.6 2.1-3.5 0.7-1.9 1.7-3.5 2.2-3.5 2.2 0 0.6-2.9-2.2-3.9-4.1-1.4-5.9-1.4-5.9 0.1 0 2.2-5.3 6.8-7.9 6.9-1.4 0-2 0.3-1.3 0.6 0.7 0.2 1.2 2.2 1.2 4.4 0 3.2-0.3 3.9-2 3.9-1.5 0-2-0.7-2-2.9 0-2.1-0.6-3.2-2.1-3.6-2.2-0.7-3.9 0.7-3.9 3.3 0 0.6-0.7 1.2-1.5 1.2-1 0-1.5-1-1.5-3.4 0-1.9 0.7-4.1 1.5-5 0.8-0.8 1.5-2.3 1.5-3.3 0.1-1 0.7-2.9 1.5-4.3 2-3.5 1.9-3.7-2-5-4.2-1.4-5.2-0.6-8 5.7-1.8 4.2-4.5 5.8-4.5 2.8 0-0.8-0.9-1.5-2-1.5-1.1 0-6.4-2.2-11.8-4.8-5.3-2.7-12.7-5.9-16.4-7.2-3.8-1.3-6.8-2.8-6.8-3.3 0-0.5 5.8-0.6 13.7-0.1 10.7 0.5 14.4 1.1 16.8 2.5 1.6 1.1 4.1 1.9 5.3 1.9 1.6 0 2.6 0.7 2.9 2.1 0.6 2 0.7 2 2.8-0.7l2.3-2.9 7.6 2c4.3 1 7.9 2.2 8.2 2.6 0.2 0.4-0.7 2.4-2.1 4.5-3.2 4.8-3.2 5.5 0.6 5 2-0.2 4.4-1.6 6.6-3.9 1.9-2.1 3.6-3.7 3.7-3.7 0.2 0 2.9 0.9 6.2 2.1 3.2 1.1 6.7 2.3 7.7 2.6 2.4 0.8 2.1 2-1.3 6-3.4 3.9-3.8 5.3-1.2 5.3 1 0 2.3 0.5 2.9 1.1 0.7 0.7 2.1-0.5 4.8-4.1 2.4-3.3 4.3-4.9 5.2-4.6 0.8 0.3 1.7 0.6 1.9 0.6 1.2 0 0.1 2.8-1.6 4-1.1 0.8-2 2-2 2.8 0 0.7-0.7 1.5-1.5 1.8-0.8 0.4-1.5 1.2-1.5 1.9 0 2-3.5 4.5-6.2 4.5-2.4 0-2.5 0.2-2 4.5 0.4 4.3 0.3 4.5-2.1 4.5-2.3 0-2.5-0.3-1.8-2.2z"/>
			<path id="p3rgaZbrt" class="s6" d="m102 22c0-1.9-0.4-3.5-1-3.5-0.5 0-1-1.6-1-3.5 0-5.4 2.4-4.3 4.3 2 2.2 7.2 2.1 8.5-0.3 8.5-1.6 0-2-0.7-2-3.5z"/>
		</g>
	</g>
	<g id="l2VHZ0p1mioA0HbIWWshZl6">
		<g>
			<path id="pAR2mK2Q0" class="s7" d="m184.3 99.8c-0.7-0.3-1.3-1.6-1.3-2.9 0-1.9 0.5-2.4 2.4-2.4 1.9 0 2.2 0.4 1.8 2.5-0.5 2.8-1.1 3.4-2.9 2.8z"/>
			<path id="piH3d3FT4" class="s7" d="m177 92.3c0-3 1.3-5.8 2.6-5.8 0.9 0 1.4 1.2 1.4 3.5 0 2.8-0.4 3.5-2 3.5-1.1 0-2-0.6-2-1.2z"/>
			<path id="p5oblv5Co" class="s7" d="m167.4 90.9c-1.3-1.1-1.5-1.7-0.6-2 0.6-0.3 1.2-1.9 1.2-3.5 0-2.3 0.4-2.9 2.1-2.9 1.9 0 2 0.4 1.4 4.3-0.9 5.3-1.6 6.1-4.1 4.1z"/>
			<path id="pumPXYCsw" class="s7" d="m186 88c0-2.8 0.4-3.5 2-3.5 2.1 0 2.4 1 1.4 4.8-1 3.6-3.4 2.7-3.4-1.3z"/>
			<path id="p6HeAZ2cs" class="s7" d="m160.3 87.8c-2.1-0.8-1.5-4.3 0.7-4.3 1.5 0 2 0.7 2 2.5 0 2.5-0.4 2.8-2.7 1.8z"/>
			<path id="p15ARueszp" class="s7" d="m150.4 77.3c0.3-2.9 0.6-7.2 0.6-9.5 0-3.7 0.3-4.3 2.1-4.3 2.1 0 2.2 0.3 1.6 7.3-0.9 9.3-1.6 11.7-3.5 11.7-1.2 0-1.4-0.9-0.8-5.2z"/>
			<path id="pkOBfebeG" class="s7" d="m187 75.5c0-6.8-0.1-7-2.5-7-1.4 0-2.5 0.5-2.5 1 0 2.4-2.9 0.7-3.5-2.1-1.1-4.8 0.6-5.5 5.6-2.3 6.8 4.3 6.8 4.5 6 16.2-0.1 0.6-0.8 1.2-1.6 1.2-1.2 0-1.5-1.4-1.5-7z"/>
			<path id="pxYM28Xuw" class="s7" d="m36.3 77.2c-6.5-1.9-7.4-2.5-8.8-5.8-1-2-2.8-4.2-4.1-4.8-2-0.9-2.4-1.8-2.4-5.5 0-2.4-0.6-4.8-1.2-5.4-0.7-0.5-4.7-2.4-8.8-4.1-10.9-4.5-12.4-6-11.6-10.5 1-5.1 3.6-4.9 3.6 0.4 0 3.5 0.3 4 2.3 4 2 0 14.6 4.7 15.7 6 0.3 0.3 1.8 1.2 3.3 2 1.6 0.8 4.1 2.7 5.6 4.2 3 3.1 13.7 7.3 14.6 5.7 0.4-0.5 3.1-0.9 6.1-0.9 4.1 0 5.4 0.4 5.4 1.5 0 0.8-1.4 1.7-3.5 2.1-3.5 0.6-3.5 0.7-1.9 2.5 1.6 1.8 1.6 2-0.2 3.4-1.6 1.2-1.7 1.7-0.6 3.4 0.6 1.2 1.2 2.5 1.2 3.1 0 1.6-6.9 1-14.7-1.3z"/>
			<path id="pjgeXS6RL" class="s7" d="m140 77.5c0-1.3 0.7-2 2-2 1.3 0 2 0.7 2 2 0 1.3-0.7 2-2 2-1.3 0-2-0.7-2-2z"/>
			<path id="pJ2TvtTjb" class="s7" d="m160.6 73c-0.8-3.3 0.3-7.5 2-7.5 1 0 1.4 1.4 1.4 5 0 5.5-2.3 7.1-3.4 2.5z"/>
			<path id="p19frFXg2P" class="s7" d="m235.9 68.5c-8.9-2.6-29.1-13.5-35.5-19.3-2.2-1.8-2.2-1.8-4.3 0.4l-2.1 2.3v-3.7c0-3.6 0.1-3.7 3.5-3.7 2.4 0 3.5 0.5 3.5 1.5 0 0.9 0.9 1.5 2.5 1.5 1.4 0 2.5 0.5 2.5 1 0 0.6 0.7 1 1.5 1 0.8 0 1.5 0.5 1.5 1 0 0.6 0.7 1 1.5 1 0.8 0 1.5 0.7 1.5 1.5 0 0.8 0.9 1.5 2 1.5 1.1 0 2 0.7 2 1.5q0 1.5 3 1.5c1.7 0 4.8 0.9 6.8 1.9 3.6 1.9 3.8 1.9 7.6 0 2.6-1.2 7.4-2.1 15.9-2.6 8.1-0.5 12.2-1.2 12.5-2 0.2-0.7-0.4-1.3-1.5-1.3-1 0-4.7-0.9-8.3-2.1-3.8-1.1-11.7-2.4-19-2.9-7.1-0.6-15.3-1.8-19-3-3.6-1.1-7.7-2-9.2-2-2.6 0-2.8-0.3-2.8-3.7 0.1-3.9 1.9-7.3 3.9-7.3 0.6 0 1.1-0.9 1.1-2 0-1.1 0.5-2 1-2 0.6 0 1-0.7 1-1.5 0-0.9 0.9-1.5 2.5-1.5 3.2 0 3.1 0.8-0.5 5.8-3.2 4.4-3.8 6.7-1.7 5.9 1.5-0.6 9.5 1.4 14.7 3.6 2 0.9 7.4 2 12 2.6 15 2 22.2 3.3 25.6 4.7 1.9 0.8 8.9 2.5 15.6 3.9 16 3.3 17.1 4.5 4 4.5-9.5 0-10.3 0.2-11 2.1-0.8 2-6.7 4.8-10 4.9-0.8 0-2.8 1-4.4 2.2-1.7 1.1-4 2.2-5.2 2.3-9 1.1-12.4 1.2-14.7 0.5z"/>
			<path id="pte1luchD" class="s7" d="m169 64.5c0-2.7 0.4-4 1.4-4 1.6 0 2.6 3.2 1.9 6-1 3.7-3.3 2.3-3.3-2z"/>
			<path id="p1ErcCNJ6i" class="s7" d="m58 63.6c0-1.3 0.6-2.1 1.8-2.1 2.7 0 15.7-3.4 16-4.2 0.2-0.5 1.7-0.8 3.3-0.8 1.9 0 2.9-0.5 2.9-1.5 0-0.8 0.7-1.5 1.5-1.5 0.8 0 1.5-0.4 1.5-1 0-0.5 0.9-1 2-1 1.1 0 2-0.7 2-1.5q0-1.5 3-1.5c2.7 0 3-0.3 3-3 0-1.6 0.5-3 1-3 0.6 0 1-0.7 1-1.5 0-0.8 0.7-1.5 1.5-1.5 0.9 0 1.5-1 1.5-2.6 0-1.4 0.5-4.5 1.1-7 0.9-3.6 0.8-5.5-0.5-10.2-2-7.2-2.1-11.2-0.2-11.2 2 0 6 15.9 5.1 20.6-2.9 15.9-13.4 26.9-31.3 32.9-3.7 1.2-8.8 2.5-11.4 2.9-4.4 0.7-4.8 0.6-4.8-1.3z"/>
			<path id="pAnEMOW8A" class="s7" d="m151 58.5c0-4.5 2.3-5.7 3.4-1.7 1.1 4.1 0.7 5.7-1.4 5.7-1.7 0-2-0.7-2-4z"/>
			<path id="pYeJMFsNm" class="s7" d="m160.6 59c-0.8-3.1 0-4.6 1.9-3.8 1.9 0.7 2 6.3 0.1 6.3-0.8 0-1.7-1.1-2-2.5z"/>
			<path id="pklbKpnq2" class="s7" d="m184.3 59c-7.4-3.3-7-4.9 0.9-4.1 3.5 0.4 6.5 0.9 6.7 1.1 0.6 0.7-0.9 5.5-1.7 5.4-0.4 0-3.1-1.1-5.9-2.4z"/>
			<path id="ptlhdJhG8" class="s7" d="m162.8 48.9c-3.8-2-3.5-3.4 0.7-3.4 3.1 0 3.5 0.3 3.5 2.5 0 2.9-0.5 3-4.2 0.9z"/>
			<path id="pj1v7kDv7" class="s7" d="m170 44c0-3 0.3-3.5 2.4-3.5 2.3 0 2.4 0.2 1.3 3.5-0.6 1.9-1.6 3.5-2.4 3.5-0.8 0-1.3-1.3-1.3-3.5z"/>
			<path id="pO0ztviYD" class="s7" d="m182.5 41.5c0.4-0.6-0.5-2.3-1.8-3.9l-2.4-2.9-1.3 2.4c-0.8 1.3-1.7 2.4-2.2 2.4-1 0-1.1-6.7 0-7.2 0.4-0.1 1.8-2.4 3.2-5 1.3-2.7 2.8-4.8 3.2-4.8 0.4 0 1.1-1.7 1.4-3.9l0.6-3.8 3.4 1c3.5 1.1 4.2 2.1 2.3 3.3-1.3 0.8-6.9 9.4-6.9 10.7 0 0.4 0.9 0.5 2 0.2 1.4-0.4 2.2-0.1 2.6 1 0.6 1.4 1 1.3 3.1-0.7l2.4-2.3-0.3 4c-0.2 3.2-0.8 4.2-3 5.3-1.7 0.8-2.8 2.1-2.8 3.3 0 1.3-0.7 1.9-2.1 1.9-1.1 0-1.7-0.5-1.4-1z"/>
			<path id="p0GlsZG3G" class="s7" d="m161.3 34.8c0.3-1.6 0.9-3.6 1.2-4.5 0.5-1.1-0.2-2.2-2-3.4-2.5-1.6-2.6-1.6-4 0.2-1.3 1.8-1.4 1.7-1.5-1.6 0-1.9 0.5-5.2 1.1-7.2 0.8-3.1 1.5-3.8 3.4-3.8 2.9 0 3 0.2 1 4l-1.6 3h3.3c1.9 0 4.1-0.9 5.6-2.2l2.3-2.3-0.3 4c-0.3 3.8-0.5 4-4 4.3-3.9 0.3-5.4 2.2-1.8 2.2 1.5 0 2 0.7 2 2.8 0 4.8-1.1 7.2-3.2 7.2-1.7 0-2-0.5-1.5-2.7z"/>
			<path id="p06xwBH6T" class="s7" d="m-0.2 25.8c-0.6-2.8 0.2-5.3 1.8-5.3 0.9 0 1.4 1.1 1.4 3.5 0 3.7-2.4 5-3.2 1.8z"/>
			<path id="p12iiJMTyp" class="s7" d="m195.1 22.8c2.1-2.7 2.9-3.1 5-2.6 4.2 1.1 1.4 4.3-3.8 4.3-2.3 0-2.4-0.2-1.2-1.7z"/>
			<path id="pgiYYE3sN" class="s7" d="m143.5 15.8c0.9-3.7 2.5-5.3 2.5-2.6 0 2.9-1 5.3-2.2 5.3-0.6 0-0.7-1.1-0.3-2.7z"/>
			<path id="pA2w3jBL4" class="s7" d="m130 12.4c-4.1-2.3-11-5.3-15.2-6.7-4.3-1.4-7.8-2.9-7.8-3.5 0-0.5 2.5-0.6 6.3-0.2 4.7 0.5 6.6 1.2 7.9 2.9 1.3 1.7 2.9 2.3 6.4 2.5 2.6 0.1 5.4 0.6 6.3 1 0.9 0.5 3.3 1.1 5.4 1.5 4 0.7 4.7 2.4 2.1 5-2.2 2.2-3 2.1-11.4-2.5z"/>
			<path id="p14PEK375b" class="s7" d="m156 9.1c0-2.3 0.2-2.4 3.5-1.3 1.9 0.6 3.5 1.6 3.5 2.4 0 0.8-1.3 1.3-3.5 1.3-3 0-3.5-0.3-3.5-2.4z"/>
		</g>
	</g>
	<g id="l8Qy0P3W1nm4RvHHefYugR">
		<g>
			<path id="pPG3IqGJA" class="s8" d="m183.5 99c-1.4-1-1.6-1.7-0.9-2.2 0.6-0.5 1.4-2.5 1.8-4.5 0.5-2.9 1.2-3.8 2.6-3.8 2.5 0 2.5 2 0.2 7.8-1.7 4-1.9 4.1-3.7 2.7z"/>
			<path id="pCh1jgj6y" class="s8" d="m36 65.8c-3.6-1.3-7.5-3.4-8.6-4.7-1.2-1.2-4.3-3.6-6.8-5.2-2.5-1.6-4.6-3.2-4.6-3.6 0-0.5 1.5-0.8 3.4-0.8 2.3 0 5.6 1.5 10.7 4.8 9.3 5.9 12.1 7.2 16.4 7.2 3.9 0 5.5 1.5 2.4 2.3-1.2 0.3-1.8 1-1.4 1.6 1.1 1.8-4.5 1-11.5-1.6z"/>
			<path id="phApSY4rt" class="s8" d="m178.3 66c-0.3-0.9-0.3-1.8 0-2.2 1-1 3.7 0.6 3.7 2.2 0 2-2.9 2-3.7 0z"/>
			<path id="pF2JZTsSi" class="s8" d="m168 61.5c0-3.2 0.9-3.7 2.8-1.8 1.9 1.9 1.5 4.8-0.8 4.8-1.6 0-2-0.7-2-3z"/>
			<path id="pTsQdsIir" class="s8" d="m219.4 61c-3.9-1.8-10.4-5.6-14.3-8.4-4-2.9-7.6-4.9-8.1-4.6-0.6 0.4-1-0.4-1-1.6 0-2.4 4.7-9.9 6.1-9.9 0.5 0 0.9-0.7 0.9-1.5 0-0.8 0.7-1.5 1.5-1.5 0.8 0 1.5-0.9 1.5-2 0-1.1 0.5-2 1-2 0.6 0 1-0.7 1-1.5 0-0.8-0.8-1.5-1.9-1.5-3.8 0-8.1-2.2-8.1-4.1 0-1 0.3-1.9 0.8-1.9 2-0.1 15.2 4.6 15.2 5.4 0 0.5-2 3.7-4.5 7.2-2.5 3.4-4.5 6.5-4.5 6.8 0 0.3 1.2 0.6 2.8 0.6 1.5 0 5.6 0.9 9.2 2 3.7 1.2 11.9 2.4 19 3 6.9 0.5 14.8 1.6 17.5 2.5 2.8 0.9 10.3 2.5 16.9 3.6 15.8 2.6 17.7 3.8 5.9 3.9-7.7 0-9.5 0.3-11 1.9-1.5 1.5-4 2-13.4 2.5-8.5 0.5-12.8 1.2-15.7 2.6-5.5 2.7-8.4 2.4-16.8-1.5z"/>
			<path id="p2xE2rlb1" class="s8" d="m185.8 59.4c-2.9-1.6-2.1-2.9 1.7-2.9 2.8 0 3.5 0.4 3.5 2 0 2.2-2.4 2.6-5.2 0.9z"/>
			<path id="pVtpY7kVJ" class="s8" d="m182.6 38.9c-0.4-1.5-0.6-2.7-0.4-2.9 0.2-0.1 1.8-0.9 3.6-1.8 3.2-1.5 3.2-1.5 3.2 0.9 0 6-5.1 9-6.4 3.8z"/>
			<path id="pFV62tD00" class="s8" d="m175 34c0-3.1 0.3-3.5 2.5-3.5 3 0 3 0.3 0.8 4.1-2.3 3.8-3.3 3.7-3.3-0.6z"/>
			<path id="pBasVtrfl" class="s8" d="m163 30c0-0.8-0.9-2-2-2.7-1.1-0.7-2-2-2-2.8-0.1-0.8-0.8-0.3-1.6 1.3-0.8 1.5-1.9 2.7-2.4 2.7-1.1 0-1.3-4.3-0.4-7.7 0.4-1.3 1.3-2.3 2-2.3 0.9 0 1.4-1.1 1.4-2.9 0-1.6 0.6-3.1 1.3-3.4 2-0.7 0.5-1.5-3.3-1.7-7-0.4-8-0.1-8 2.3 0 4.3-1.2 6.7-3.2 6.7-1.7 0-2-0.5-1.5-3 0.8-3.8 4.7-9.8 6.8-10.5 0.9-0.3 3.6 0.1 6 1 2.4 0.8 5.2 1.5 6.2 1.5 3 0 3 2.7-0.2 7.1-1.7 2.3-3.1 4.5-3.1 4.9 0 1.4 7.2 1.7 7.7 0.3 0.3-0.7 0.9-1.3 1.4-1.3 1.4 0 1 5.8-0.6 9-1.6 3.1-4.5 4.1-4.5 1.5z"/>
			<path id="p10DkCBVpI" class="s8" d="m191 28.5c3.1-4.4 4-4.5 4-0.6 0 3.3-0.2 3.6-3.1 3.6h-3z"/>
			<path id="pKS4kRQu0" class="s8" d="m175.8 16.8c-2-0.5-2.5-4.3-0.7-4.3 2.9 0 8.9 2.5 8.9 3.7 0 1.3-4.4 1.6-8.2 0.6z"/>
		</g>
	</g>
	<g id="l2RvqFxdOvfmjxd65KItRm0">
		<g>
			<path id="pdM3x9mEC" class="s9" d="m0 7.2v-5.7h15 15v2.3c0 5.4-4.7 7.5-19.7 8.4l-10.3 0.6z"/>
			<path id="pWWojPqnI" class="s9" d="m95.5 8.5c-3.4-5.3-3.2-7 0.5-7 3.2 0 4.4 1.8 5.7 8.3 0.9 4.4-3.1 3.6-6.2-1.3z"/>
		</g>
	</g>
	<g id="l3sj48BO70euMGS4LF0iDYQ">
		<g>
			<path id="piHHjo3TO" class="s10" d="m180.1 97.4c-3.1-1.9-3.3-2.3-2.7-5.7 0.4-2 0.9-8.8 1.3-15 0.3-6.2 0.9-11.5 1.4-11.7 0.4-0.3 2.8 0.4 5.4 1.5l4.8 2-0.6 10.8c-0.5 10.8-2.8 20.2-5 20.2-0.7 0-2.7-0.9-4.6-2.1z"/>
			<path id="pXb5UzjsD" class="s10" d="m163.5 89.2c-3.2-1.9-3.9-2.8-3.7-4.8 0.2-1.3 0.6-8.6 0.9-16.1l0.5-13.8 4.9 2.5c4.8 2.5 6.6 5.8 3.7 6.7-0.9 0.3-0.8 0.9 0.5 2.2 3 3 1.9 24.8-1.3 25.3-0.8 0.2-3.3-0.7-5.5-2z"/>
			<path id="ptl0EltxL" class="s10" d="m145.3 80.7c-4.3-2.2-5.2-3.1-4.7-4.7 2-7.3 2.4-10.1 2.4-19.2 0-5.7 0.2-10.3 0.5-10.3 0.3 0 2.8 1.1 5.5 2.5 3.5 1.8 5 3.1 5 4.5 0 2.2-2 2.6-5.1 1-1.8-1-1.9-0.7-1.9 6.5 0 7.2 0.1 7.5 1.9 6.5 4-2.1 5.1-1.3 5.1 3.8 0 6.8-1.1 12.2-2.4 12.1-0.6 0-3.5-1.2-6.3-2.7z"/>
			<path id="pHvTvsXRR" class="s10" d="m151 61.5c0-2.7 0.4-4 1.4-4 1.6 0 2.6 3.2 1.9 6-1 3.7-3.3 2.3-3.3-2z"/>
			<path id="pIhyL4hdU" class="s10" d="m187 59.6c-1.4-0.5-4-1.6-5.8-2.5-3-1.6-3.3-2-2.7-4.9 0.4-1.8 1.5-5.1 2.5-7.3 2.2-5 15.8-24.4 17.2-24.4 0.5 0 4.3 1.2 8.4 2.6 6.1 2.2 7.2 2.9 6.5 4.3-0.5 0.9-5 6.7-10 13-4.9 6.2-9.8 13.3-10.8 15.7-1 2.4-2 4.4-2.3 4.3-0.3 0-1.6-0.4-3-0.8zm8.9-14.9c2.8-0.3 3.1-0.6 3.1-3.8 0-2.7 0.4-3.4 2-3.4 1.5 0 2-0.7 2-2.5 0-1.4 0.3-2.5 0.8-2.5 0.4 0 1.2-1.1 1.8-2.4 1-2.2 0.8-2.4-2.4-3.4-3.2-1-3.8-0.9-5.9 1.4-1.3 1.4-2.3 2.9-2.3 3.5 0 0.5-0.4 0.9-1 0.9-0.5 0-1 0.7-1 1.5 0 0.7-0.6 1.8-1.2 2.2-1.5 0.9-3.1 3.6-6.5 10.5-2.8 5.9-2.8 6.3 0 7.5 2 0.9 2.4 0.5 4.8-4.1 2.2-4.3 3.1-5.1 5.8-5.4z"/>
			<path id="pea4dZvGT" class="s10" d="m164.8 49.8c-4.2-2.2-4.8-2.9-4.8-5.7 0.1-7.6 6-22.7 11.4-29l2.5-3 7.1 2.4c3.9 1.3 7.4 2.8 7.7 3.3 0.3 0.5-0.6 2.1-1.9 3.5-6 6.8-13.4 20.7-14.4 27.1-0.4 2.3-1.2 4.1-1.8 4-0.6 0-3.2-1.2-5.8-2.6zm9.3-18c1.2-2.1 2.5-4 2.9-4.3 1.2-1.1 4.4-8 3.9-8.5-0.3-0.2-1.9-0.7-3.5-1.1-2.2-0.4-3.1-0.1-3.9 1.4-0.5 1.1-2 3.8-3.3 6.2-2.3 4.2-6.2 15.1-6.2 17.5 0 0.6 1 1.6 2.2 2.2 2.1 0.9 2.4 0.6 3.9-4.3 0.9-2.9 2.7-7 4-9.1z"/>
			<path id="pXibEQm3K" class="s10" d="m146.6 41.7l-4.9-2.7 0.7-10.5c0.5-8.6 1.1-11.5 3.4-16 1.6-3.3 3.5-5.6 4.6-5.9 1.5-0.2 12.9 2.5 14.4 3.5 0.2 0.1-1.1 2.2-2.8 4.7-4 6-5.5 10.4-7 21-0.7 5.3-1.7 8.7-2.4 8.6-0.6-0.1-3.3-1.3-6-2.7zm4.8-9.2c0.7-6.1 3.8-16.3 5.6-18.5 0.8-1 0.2-1.6-2.2-2.4-2.3-0.8-3.4-0.8-3.6-0.1-0.2 0.6-1 1.6-1.7 2.4-1.6 1.5-3.5 11.1-3.5 17.4 0 3.1 0.5 4.9 1.8 5.8 2.7 2.1 2.9 1.8 3.6-4.6z"/>
		</g>
	</g>
	<g id="l58zEssOl1Jk85p3Dt1S7vj">
		<g>
			<path id="p7NaKiP46" class="s11" d="m148.4 80.3c-0.4-0.6-0.3-0.8 0.4-0.4 0.6 0.3 1.3 0.2 1.7-0.4 1-1.6 2.5-1.2 1.9 0.5-0.7 1.8-3 2-4 0.3z"/>
			<path id="p1GhXC9IzM" class="s11" d="m141.9 78.7c-1.5-0.6-1.5-1.1 0.2-4.9 1.3-3 2.4-4.3 3.8-4.3 1.1 0 2.3-0.4 2.6-1 0.3-0.5 1.6-1 2.9-1 1.9 0 2.3 0.6 2.4 3.7 0.2 3.9-2.6 7.3-5.9 7.3-0.9 0-2.3 0.2-3.1 0.4-0.7 0.3-2 0.2-2.9-0.2z"/>
			<path id="pYR40xonc" class="s11" d="m161.5 71.4c-0.3-1.9-0.2-5.2 0.2-7.3 0.7-3.2 1.4-4.1 3.8-4.8 2-0.5 3.4-0.3 4.1 0.5 1.5 1.6 2.3 8.7 1.3 11.2-0.7 1.9-0.8 1.8-0.8-0.3-0.1-2.1-0.4-2.3-3.3-1.7-4.2 0.9-5.3 1.6-4 2.4 0.7 0.4 0.7 1.2 0.2 2.1-0.6 1-1 0.4-1.5-2.1z"/>
			<path id="pRlsTrNVO" class="s11" d="m179 66.5c0-2.3 1.7-2.5 4.3-0.6 2.5 1.9 2.1 2.6-1.3 2.6-2.3 0-3-0.4-3-2z"/>
			<path id="pgKaRwy2D" class="s11" d="m41 65.7c-0.8-0.2-5.8-2.8-11-5.7-5.2-3-14.1-7.2-19.8-9.5l-10.2-4.2v-18.3-18.2l8.7-0.7c11.2-0.8 16.2-2.3 17.6-5.3l1-2.3h34.3 34.3l3.1 4.7c6.5 9.6 7.2 26.1 1.5 35.9-7.2 12.4-25.4 21.7-44.9 23-3.9 0.3-8.4 0.6-10.1 0.8-1.6 0.2-3.7 0.1-4.5-0.2z"/>
			<path id="p1BAlI7Ner" class="s11" d="m187.8 59.8c-2.8-0.7-2.2-3.3 0.7-3.3 1.8 0 2.5 0.5 2.5 2 0 2-0.2 2.1-3.2 1.3z"/>
			<path id="p1AxkAYBab" class="s11" d="m194 47.2c0-4.1 1.9-6 5.6-5.5l2.7 0.3-4.1 4.3-4.2 4.4z"/>
			<path id="pmioa3jYz" class="s11" d="m202 37.1c0-3.3 0.2-3.6 3.1-3.6h3l-2.1 3c-3.1 4.4-4 4.5-4 0.6z"/>
		</g>
	</g>
	<g id="l54Jb0RKLUp75UBHsmPt0p2">
		<g>
			<path id="pFhZHmU0k" class="s12" d="m160.5 86.5c-0.8-1.3 0.4-5 1.6-5 0.5 0 0.9 1.4 0.9 3 0 3-1.3 4-2.5 2z"/>
			<path id="psLY4dKja" class="s12" d="m179.3 75.5c0.2-11.1 0.3-11.3 6.7-8 4.3 2.2 4.6 3.1 3.1 10.5-0.8 3.9-0.8 3.9-1.5 1.3-0.5-1.6-0.5-3.5-0.2-4.4 0.7-1.9-2-5.4-4.1-5.4-1 0-1.3 1.4-1.2 5.8 0.2 3.1-0.1 6.7-0.5 8-1.6 4.7-2.4 1.8-2.3-7.8z"/>
			<path id="pIGH7ixPE" class="s12" d="m148.9 80.8c-0.8-1-0.9-1.4-0.2-1 0.6 0.4 1.4 0.3 1.8-0.3 1.1-1.8 2.3-1.1 1.8 1-0.6 2.4-1.6 2.5-3.4 0.3z"/>
			<path id="p18AzvMTZf" class="s12" d="m141.4 76c1.6-4.2 2.8-15.1 2.4-21.7-0.2-3.7 0-6.8 0.5-6.8 0.5 0 2.8 1.2 5.3 2.6l4.4 2.6v8.4 8.5l-3.7 1.5c-2.1 0.9-5.1 2.8-6.7 4.2-2.5 2.3-2.8 2.4-2.2 0.7z"/>
			<path id="pZKVTVuLM" class="s12" d="m162 74.5c0-1.6 0.4-3 0.8-3 0.5 0 0.7 1.4 0.4 3-0.2 1.7-0.6 3-0.8 3-0.2 0-0.4-1.3-0.4-3z"/>
			<path id="p14LPJMT9X" class="s12" d="m170.3 72c0-2.2 0.2-3 0.4-1.7 0.2 1.2 0.2 3 0 4-0.3 0.9-0.5-0.1-0.4-2.3z"/>
			<path id="pSBgrEhxl" class="s12" d="m161.6 61.6c-0.3-2.3-0.4-4.6-0.1-5.2 0.7-1.1 8.7 3.2 8.6 4.6 0 0.6-1.3 1.2-2.8 1.3-1.5 0.2-3.2 1.1-3.9 1.9-0.9 1.3-1.2 0.9-1.8-2.6z"/>
			<path id="phOLkrEvU" class="s12" d="m182.6 57.4c-3.5-1.9-3.8-2.4-3.3-5.2 0.8-5.2 5.3-13.6 12.3-23 5.1-7 6.9-8.7 8.2-8.1 0.9 0.4 4.2 1.6 7.2 2.6 3 1.1 5.7 2.2 5.9 2.4 0.5 0.5-10.2 14.8-14.4 19.4-3.5 3.7-7.5 10.6-7.5 12.7 0 1.9-4 1.5-8.4-0.8z"/>
			<path id="p9hoPINvv" class="s12" d="m165 49.1c-4.3-2.3-4.4-2.5-4.1-6.6 0.8-11.7 9.5-29.1 14.5-28.9 1.1 0 4.7 1 7.9 2.2 5.8 2.2 5.8 2.3 3.8 4.1-3.6 3.2-13 19.9-14.4 25.6-0.8 2.9-1.8 5.5-2.3 5.7-0.5 0.1-2.9-0.8-5.4-2.1z"/>
			<path id="p3O3vY58W" class="s12" d="m147.1 41.3l-4.4-2.1 0.5-11.3c0.5-9.6 0.9-12 3.1-16.1 2.1-4.1 2.9-4.8 5.3-4.6 4.3 0.2 12.4 2.6 12.4 3.6 0 0.5-1.1 2.3-2.5 4.1-3.4 4.5-6.4 13.6-7.2 21.8-0.3 4-1 6.8-1.7 6.8-0.6-0.1-3.1-1.1-5.5-2.2z"/>
		</g>
	</g>
	<g id="eGovFrame Text">
		<path id="전자정부표준개발프레임워크" fill-rule="evenodd" class="s13 darkmode-text" d="m441.41 63.45v0.94h2.52v4.8h1.16v-9.2h-1.16v3.46zm0.74 2.95c-1.82-0.64-3.05-2.21-3.05-3.85v-0.61h2.75v-0.94h-6.7v0.94h2.8v0.63c0 1.78-1.3 3.44-3.17 4.11l0.61 0.9c1.47-0.53 2.61-1.69 3.16-3.12 0.55 1.29 1.62 2.34 3.02 2.84zm-3.93 4.91v-2.94h-1.16v3.88h8.38v-0.94zm12.76-9.1h2.79v-0.95h-6.79v0.95h2.87v1.6c0 2.13-1.52 4.51-3.31 5.4l0.67 0.91c1.42-0.72 2.64-2.32 3.21-4.15 0.57 1.68 1.75 3.15 3.15 3.85l0.66-0.93c-1.82-0.85-3.25-3.08-3.25-5.08zm7.5 2.83h-2.07v-5.06h-1.15v12.55h1.15v-6.53h2.07zm7.98-1.8v0.94h2.48v3.29h1.16v-7.48h-1.16v3.25zm0.7 2.85c-1.82-0.64-3.06-2.22-3.06-3.83v-0.44h2.76v-0.92h-6.7v0.92h2.8v0.44c0 1.8-1.29 3.5-3.17 4.18l0.6 0.91c1.47-0.56 2.64-1.73 3.17-3.19 0.54 1.29 1.62 2.33 3.02 2.83zm-1.2 1.76c-2.58 0-4.19 0.86-4.19 2.34 0 1.49 1.61 2.34 4.19 2.34 2.57 0 4.18-0.85 4.18-2.34 0-1.48-1.61-2.34-4.18-2.34zm0 3.78c-1.89 0-3.04-0.53-3.04-1.44 0-0.91 1.15-1.45 3.04-1.45 1.89 0 3.04 0.54 3.04 1.45 0 0.91-1.15 1.44-3.04 1.44zm15.74-11.15h-1.15v1.72h-6.23v-1.72h-1.14v5.43h8.52zm-1.15 4.49h-6.23v-1.85h6.23zm2.59 2.45h-11.4v0.93h5.1v4.2h1.15v-4.2h5.15zm8.79 2.64v-2.98h2.13v-0.92h-1.93v-4.1h1.94v-0.93h-9.31v0.93h1.95v4.1h-1.92v0.92h2.12v2.98h-3.17v0.94h11.4v-0.94zm-4.08-8h3.13v4.1h-3.13zm0.2 5.02h2.73v2.99h-2.73zm9.82-1.56c2.03-0.31 3.88-1.31 4.57-2.77 0.67 1.46 2.52 2.46 4.56 2.77l0.42-0.92c-2.21-0.3-4.24-1.54-4.24-3.07v-0.01h3.9v-0.93h-9.29v0.93h3.9v0.01c0 1.53-2.03 2.77-4.25 3.07zm1.45 3.16h-1.14v3.56h8.68v-0.94h-7.54zm-2.6-2.25v0.92h5.22v2.55h1.15v-2.55h5.03v-0.92zm12.5-4.85v0.94h3.77c-0.17 2.6-1.36 4.87-4.25 6.48l0.68 0.83c3.57-2.02 4.7-5.01 4.7-8.25zm9.07-1.62v5.05h-1.71v-4.72h-1.07v11.6h1.07v-5.94h1.71v6.57h1.11v-12.56zm8.78 0.52h-1.12v1.8h-3.56v-1.8h-1.13v5.48h5.81zm-1.12 4.57h-3.56v-1.88h3.56zm-2.28 5.06h6.81v-3.06h-7.98v0.91h6.85v1.29h-6.8v3.14h8.4v-0.91h-7.28zm6.81-7.44v-2.68h-1.14v6.48h1.14v-2.84h1.87v-0.96zm6.21 3.85h-1.92v0.94h9.25v-0.94h-1.92v-4.36h1.95v-0.93h-9.31v0.93h1.95zm4.27 0h-3.13v-4.37h3.13zm-7.23 3.44v0.95h11.38v-0.95zm13.53-4.25h3.36v-4.36h-4.51v0.94h3.4v2.51h-3.36v4.64h0.83c1.6 0 3.02-0.07 4.77-0.36l-0.09-0.94c-1.61 0.28-2.97 0.34-4.4 0.34zm5.5-1.23h-1.55v0.95h1.55v6.44h1.08v-11.59h-1.08zm2.54-4.51v12.56h1.1v-12.56zm11.6 0.01v7.18h1.14v-7.18zm-6.97 7.86v4.52h8.12v-4.52zm7 0.91v2.68h-5.88v-2.68zm-5.63-8.11c-1.89 0-3.26 1.19-3.26 2.93 0 1.73 1.37 2.92 3.26 2.92 1.91 0 3.29-1.19 3.29-2.92 0-1.74-1.38-2.93-3.29-2.93zm0 0.95c1.26 0 2.17 0.83 2.17 1.98 0 1.16-0.91 1.97-2.17 1.97-1.24 0-2.14-0.81-2.14-1.97 0-1.15 0.9-1.98 2.14-1.98zm13.49 3.95c1.87 0 3.15-0.99 3.15-2.48 0-1.47-1.28-2.46-3.15-2.46-1.86 0-3.15 0.99-3.15 2.46 0 1.49 1.29 2.48 3.15 2.48zm0-4.06c1.22 0 2.08 0.64 2.08 1.58 0 0.97-0.86 1.6-2.08 1.6-1.21 0-2.07-0.63-2.07-1.6 0-0.94 0.86-1.58 2.07-1.58zm4.18 4.69c-2.73 0.39-5.9 0.41-8.26 0.41l0.14 0.96c0.99 0 2.12-0.01 3.31-0.05v4.66h1.15v-4.72q1.86-0.1 3.73-0.41zm0.95-6.18v8.56h-2.84v0.9h2.84v3.09h1.15v-12.55zm3.86 5.08l0.17 0.95 7.57-0.42c-0.07 0.97-0.21 2-0.49 3.21l1.14 0.11c0.54-2.58 0.54-4.27 0.54-6.13v-1.54h-8.61v0.93h7.49v0.61q0.01 0.96-0.02 1.94zm-1.03 4.78v0.93h11.36v-0.93z"/>
		<path id="eGovFramePortal" fill-rule="evenodd" class="s14" d="m62.81 46.36q1.07 2.36 0.85 5.49-0.09 1.83-0.88 5.27h-18.21q-0.71 4.01 1.32 5.62 1.22 1 3.25 1 2.15 0 3.76-1.22 0.85-0.66 1.68-1.83h7.11q-0.79 2.37-3.5 4.81-4.24 3.88-10.4 3.88-5.07 0-8.27-3.27-3.18-3.27-1.61-10.65 1.46-6.91 5.73-10.59 4.3-3.69 9.89-3.69 3.32 0 5.71 1.25 2.42 1.24 3.57 3.93zm-17.09 6.17h10.81q0.42-2.76-0.8-4.17-1.2-1.44-3.42-1.44-2.42 0-4.08 1.51-1.63 1.52-2.51 4.1zm54.93-8.79h-7.4q-0.07-3.68-3.07-5.15-1.69-0.8-3.96-0.8-4.35 0-7.84 3.29-3.49 3.27-4.9 9.87-1.4 6.64 1.02 9.4 2.44 2.75 6.3 2.75 3.78 0 6.67-2.17 2.9-2.2 4.2-5.74h-8.33l1.29-6h14.99l-4.1 19.31h-4.98l0.2-4.49q-2.74 2.56-4.69 3.61-3.37 1.83-7.72 1.83-7.15 0-10.66-4.95-3.69-4.98-1.86-13.63 1.86-8.74 7.79-14.01 5.93-5.27 13.84-5.27 6.86 0 10.28 3.49 3.42 3.46 2.93 8.66zm11.34 25.69q-6.86 0-9.35-4.15-2.47-4.18-1.22-10.04 1.22-5.76 5.49-9.98 4.27-4.23 11.13-4.23 6.87 0 9.33 4.23 2.47 4.22 1.25 9.98-1.25 5.86-5.52 10.04-4.25 4.15-11.11 4.15zm9.33-14.19q0.85-4-0.35-6.15-1.17-2.17-4.22-2.17-3.05 0-5.15 2.17-2.1 2.15-2.95 6.15-0.86 4.01 0.31 6.18 1.2 2.17 4.25 2.17 3.05 0 5.15-2.17 2.1-2.17 2.96-6.18zm19.13 6.28l9.84-19.63h7.47l-15.23 26.61h-7.35l-3.91-26.61h7.82zm14.35 6.98l7.62-35.94h25.51l-1.34 6.33h-18.04l-1.76 8.27h15.79l-1.31 6.25h-15.8l-3.2 15.09zm49.58-27.2l-1.51 7.13q-0.64-0.07-1.15-0.09-0.51-0.03-0.83-0.03-4.2 0-6.22 2.74-1.13 1.53-1.81 4.73l-2.69 12.72h-7l5.64-26.61h6.64l-0.98 4.64q2.17-2.66 3.57-3.64 2.31-1.64 5.44-1.64 0.2 0 0.32 0.03 0.14 0 0.58 0.02zm7.31 11.31l2.42-0.3q2-0.24 2.9-0.61 1.61-0.63 1.91-1.97 0.34-1.64-0.66-2.25-1-0.63-3.2-0.63-2.47 0-3.76 1.22-0.9 0.9-1.49 2.44h-6.71q0.97-3.49 3.17-5.74 3.52-3.52 10.23-3.52 4.37 0 7.4 1.74 3.03 1.73 2 6.54l-2.61 12.21q-0.27 1.27-0.59 3.07-0.22 1.37 0 1.86 0.25 0.49 0.86 0.81l-0.2 1.02h-7.57q-0.14-0.8-0.12-1.51 0.02-0.71 0.15-1.61-1.79 1.56-3.89 2.66-2.53 1.29-5.37 1.29-3.61 0-5.54-2.05-1.9-2.07-1.1-5.86 1.05-4.91 5.3-7.1 2.32-1.2 6.47-1.71zm5.42 5.54l0.54-2.59q-0.73 0.42-1.47 0.69-0.73 0.24-1.95 0.46l-1.61 0.29q-2.3 0.39-3.37 0.95-1.81 0.96-2.22 2.96-0.39 1.78 0.41 2.59 0.83 0.78 2.25 0.78 2.24 0 4.42-1.32 2.17-1.32 3-4.81zm50.56-13.77q0.81 1.39 0.78 3.42-0.05 1.34-0.58 3.93l-3.62 16.77h-7.13l3.59-16.94q0.32-1.52 0.05-2.49-0.54-1.86-3.03-1.86-2.88 0-4.49 2.39-0.83 1.27-1.22 3.06l-3.34 15.84h-7.01l3.34-15.84q0.52-2.37 0.25-3.45-0.46-1.92-3.03-1.92-2.98 0-4.42 1.92-0.78 1.1-1.24 3.28l-3.4 16.01h-7.05l5.64-26.56h6.76l-0.83 3.88q1.73-2.07 3.08-2.95 2.34-1.57 5.56-1.57 3.06 0 4.67 1.35 1.24 1.24 1.61 3.19 1.85-2.34 4.12-3.44 2.37-1.1 5.01-1.1 1.76 0 3.32 0.69 1.56 0.68 2.61 2.39zm26.13 1.98q1.08 2.37 0.86 5.49-0.1 1.83-0.88 5.27h-18.22q-0.7 4.01 1.32 5.62 1.22 1 3.25 1 2.15 0 3.76-1.22 0.85-0.66 1.68-1.83h7.11q-0.78 2.37-3.49 4.81-4.25 3.88-10.4 3.88-5.08 0-8.28-3.27-3.17-3.27-1.61-10.65 1.46-6.91 5.74-10.59 4.29-3.69 9.88-3.69 3.33 0 5.72 1.25 2.41 1.24 3.56 3.93zm-17.09 6.17h10.82q0.41-2.75-0.81-4.17-1.19-1.44-3.42-1.44-2.41 0-4.07 1.51-1.64 1.52-2.52 4.1zm36.11 3.03h-7.64l-2.74 12.94h-7.47l7.64-35.99h15.68q5.42 0 8.03 2.79 2.64 2.78 1.42 8.62-1.37 6.37-5.15 9-3.79 2.64-9.77 2.64zm2.93-16.8h-7.01l-2.24 10.6h7q2.66 0 4.42-1.29 1.76-1.3 2.35-4.11 0.61-2.8-0.64-4-1.22-1.2-3.88-1.2zm21.23 30.67q-6.86 0-9.35-4.15-2.46-4.18-1.22-10.04 1.22-5.76 5.5-9.98 4.27-4.22 11.13-4.22 6.86 0 9.32 4.22 2.47 4.22 1.25 9.98-1.25 5.86-5.52 10.04-4.25 4.15-11.11 4.15zm9.33-14.19q0.85-4-0.34-6.15-1.17-2.17-4.23-2.17-3.05 0-5.15 2.17-2.1 2.15-2.95 6.15-0.86 4.01 0.32 6.18 1.19 2.17 4.24 2.17 3.06 0 5.16-2.17 2.1-2.17 2.95-6.18zm29.07-13.94l-1.51 7.13q-0.64-0.07-1.15-0.09-0.51-0.03-0.83-0.03-4.2 0-6.22 2.74-1.13 1.53-1.81 4.73l-2.69 12.72h-7l5.64-26.61h6.64l-0.98 4.64q2.17-2.66 3.57-3.64 2.31-1.64 5.44-1.64 0.2 0 0.32 0.03 0.14 0 0.58 0.02zm1.38 5.79h-3.71l1.05-4.96h3.71l1.58-7.42h6.89l-1.59 7.42h4.32l-1.05 4.96h-4.32l-3 14.06q-0.34 1.64-0.02 2.05 0.34 0.39 2.46 0.39 0.32 0 0.66 0 0.37-0.02 0.73-0.04l-1.12 5.2-3.32 0.12q-4.96 0.17-6.37-1.71-0.91-1.2-0.39-3.69zm20.93 5.52l2.42-0.29q2-0.25 2.9-0.61 1.61-0.64 1.91-1.98 0.34-1.64-0.66-2.25-1-0.63-3.2-0.63-2.47 0-3.76 1.22-0.9 0.9-1.49 2.44h-6.71q0.97-3.49 3.17-5.74 3.52-3.51 10.23-3.51 4.37 0 7.4 1.73 3.02 1.73 2 6.54l-2.61 12.21q-0.27 1.27-0.59 3.08-0.22 1.36 0 1.85 0.24 0.49 0.85 0.81l-0.19 1.02h-7.57q-0.15-0.8-0.12-1.51 0.02-0.71 0.15-1.61-1.79 1.56-3.89 2.66-2.54 1.29-5.37 1.29-3.61 0-5.54-2.05-1.9-2.07-1.1-5.86 1.05-4.9 5.3-7.1 2.32-1.2 6.47-1.71zm5.42 5.54l0.54-2.59q-0.74 0.42-1.47 0.69-0.73 0.24-1.95 0.46l-1.61 0.29q-2.3 0.39-3.37 0.96-1.81 0.95-2.22 2.95-0.39 1.78 0.41 2.59 0.83 0.78 2.25 0.78 2.24 0 4.42-1.32 2.17-1.32 3-4.81zm23.88-25.63l-7.65 35.98h-6.95l7.64-35.98z"/>
		<path id="eGovFramePortal top" fill-rule="evenodd" class="s15" d="m62.81 46.36q1.07 2.36 0.85 5.49-0.09 1.83-0.88 5.27h-18.21q-0.71 4.01 1.32 5.62 1.22 1 3.25 1 2.15 0 3.76-1.22 0.85-0.66 1.68-1.83h7.11q-0.79 2.37-3.5 4.81-4.24 3.88-10.4 3.88-5.07 0-8.27-3.27-3.18-3.27-1.61-10.65 1.46-6.91 5.73-10.59 4.3-3.69 9.89-3.69 3.32 0 5.71 1.25 2.42 1.24 3.57 3.93zm-17.09 6.17h10.81q0.42-2.76-0.8-4.17-1.2-1.44-3.42-1.44-2.42 0-4.08 1.51-1.63 1.52-2.51 4.1zm54.93-8.79h-7.4q-0.07-3.68-3.07-5.15-1.69-0.8-3.96-0.8-4.35 0-7.84 3.29-3.49 3.27-4.9 9.87-1.4 6.64 1.02 9.4 2.44 2.75 6.3 2.75 3.78 0 6.67-2.17 2.9-2.2 4.2-5.74h-8.33l1.29-6h14.99l-4.1 19.31h-4.98l0.2-4.49q-2.74 2.56-4.69 3.61-3.37 1.83-7.72 1.83-7.15 0-10.66-4.95-3.69-4.98-1.86-13.63 1.86-8.74 7.79-14.01 5.93-5.27 13.84-5.27 6.86 0 10.28 3.49 3.42 3.46 2.93 8.66zm11.34 25.69q-6.86 0-9.35-4.15-2.47-4.18-1.22-10.04 1.22-5.76 5.49-9.98 4.27-4.23 11.13-4.23 6.87 0 9.33 4.23 2.47 4.22 1.25 9.98-1.25 5.86-5.52 10.04-4.25 4.15-11.11 4.15zm9.33-14.19q0.85-4-0.35-6.15-1.17-2.17-4.22-2.17-3.05 0-5.15 2.17-2.1 2.15-2.95 6.15-0.86 4.01 0.31 6.18 1.2 2.17 4.25 2.17 3.05 0 5.15-2.17 2.1-2.17 2.96-6.18zm19.13 6.28l9.84-19.63h7.47l-15.23 26.61h-7.35l-3.91-26.61h7.82zm14.35 6.98l7.62-35.94h25.51l-1.34 6.33h-18.04l-1.76 8.27h15.79l-1.31 6.25h-15.8l-3.2 15.09zm49.58-27.2l-1.51 7.13q-0.64-0.07-1.15-0.09-0.51-0.03-0.83-0.03-4.2 0-6.22 2.74-1.13 1.53-1.81 4.73l-2.69 12.72h-7l5.64-26.61h6.64l-0.98 4.64q2.17-2.66 3.57-3.64 2.31-1.64 5.44-1.64 0.2 0 0.32 0.03 0.14 0 0.58 0.02zm7.31 11.31l2.42-0.3q2-0.24 2.9-0.61 1.61-0.63 1.91-1.97 0.34-1.64-0.66-2.25-1-0.63-3.2-0.63-2.47 0-3.76 1.22-0.9 0.9-1.49 2.44h-6.71q0.97-3.49 3.17-5.74 3.52-3.52 10.23-3.52 4.37 0 7.4 1.74 3.03 1.73 2 6.54l-2.61 12.21q-0.27 1.27-0.59 3.07-0.22 1.37 0 1.86 0.25 0.49 0.86 0.81l-0.2 1.02h-7.57q-0.14-0.8-0.12-1.51 0.02-0.71 0.15-1.61-1.79 1.56-3.89 2.66-2.53 1.29-5.37 1.29-3.61 0-5.54-2.05-1.9-2.07-1.1-5.86 1.05-4.91 5.3-7.1 2.32-1.2 6.47-1.71zm5.42 5.54l0.54-2.59q-0.73 0.42-1.47 0.69-0.73 0.24-1.95 0.46l-1.61 0.29q-2.3 0.39-3.37 0.95-1.81 0.96-2.22 2.96-0.39 1.78 0.41 2.59 0.83 0.78 2.25 0.78 2.24 0 4.42-1.32 2.17-1.32 3-4.81zm50.56-13.77q0.81 1.39 0.78 3.42-0.05 1.34-0.58 3.93l-3.62 16.77h-7.13l3.59-16.94q0.32-1.52 0.05-2.49-0.54-1.86-3.03-1.86-2.88 0-4.49 2.39-0.83 1.27-1.22 3.06l-3.34 15.84h-7.01l3.34-15.84q0.52-2.37 0.25-3.45-0.46-1.92-3.03-1.92-2.98 0-4.42 1.92-0.78 1.1-1.24 3.28l-3.4 16.01h-7.05l5.64-26.56h6.76l-0.83 3.88q1.73-2.07 3.08-2.95 2.34-1.57 5.56-1.57 3.06 0 4.67 1.35 1.24 1.24 1.61 3.19 1.85-2.34 4.12-3.44 2.37-1.1 5.01-1.1 1.76 0 3.32 0.69 1.56 0.68 2.61 2.39zm26.13 1.98q1.08 2.37 0.86 5.49-0.1 1.83-0.88 5.27h-18.22q-0.7 4.01 1.32 5.62 1.22 1 3.25 1 2.15 0 3.76-1.22 0.85-0.66 1.68-1.83h7.11q-0.78 2.37-3.49 4.81-4.25 3.88-10.4 3.88-5.08 0-8.28-3.27-3.17-3.27-1.61-10.65 1.46-6.91 5.74-10.59 4.29-3.69 9.88-3.69 3.33 0 5.72 1.25 2.41 1.24 3.56 3.93zm-17.09 6.17h10.82q0.41-2.75-0.81-4.17-1.19-1.44-3.42-1.44-2.41 0-4.07 1.51-1.64 1.52-2.52 4.1zm36.11 3.03h-7.64l-2.74 12.94h-7.47l7.64-35.99h15.68q5.42 0 8.03 2.79 2.64 2.78 1.42 8.62-1.37 6.37-5.15 9-3.79 2.64-9.77 2.64zm2.93-16.8h-7.01l-2.24 10.6h7q2.66 0 4.42-1.29 1.76-1.3 2.35-4.11 0.61-2.8-0.64-4-1.22-1.2-3.88-1.2zm21.23 30.67q-6.86 0-9.35-4.15-2.46-4.18-1.22-10.04 1.22-5.76 5.5-9.98 4.27-4.22 11.13-4.22 6.86 0 9.32 4.22 2.47 4.22 1.25 9.98-1.25 5.86-5.52 10.04-4.25 4.15-11.11 4.15zm9.33-14.19q0.85-4-0.34-6.15-1.17-2.17-4.23-2.17-3.05 0-5.15 2.17-2.1 2.15-2.95 6.15-0.86 4.01 0.32 6.18 1.19 2.17 4.24 2.17 3.06 0 5.16-2.17 2.1-2.17 2.95-6.18zm29.07-13.94l-1.51 7.13q-0.64-0.07-1.15-0.09-0.51-0.03-0.83-0.03-4.2 0-6.22 2.74-1.13 1.53-1.81 4.73l-2.69 12.72h-7l5.64-26.61h6.64l-0.98 4.64q2.17-2.66 3.57-3.64 2.31-1.64 5.44-1.64 0.2 0 0.32 0.03 0.14 0 0.58 0.02zm1.38 5.79h-3.71l1.05-4.96h3.71l1.58-7.42h6.89l-1.59 7.42h4.32l-1.05 4.96h-4.32l-3 14.06q-0.34 1.64-0.02 2.05 0.34 0.39 2.46 0.39 0.32 0 0.66 0 0.37-0.02 0.73-0.04l-1.12 5.2-3.32 0.12q-4.96 0.17-6.37-1.71-0.91-1.2-0.39-3.69zm20.93 5.52l2.42-0.29q2-0.25 2.9-0.61 1.61-0.64 1.91-1.98 0.34-1.64-0.66-2.25-1-0.63-3.2-0.63-2.47 0-3.76 1.22-0.9 0.9-1.49 2.44h-6.71q0.97-3.49 3.17-5.74 3.52-3.51 10.23-3.51 4.37 0 7.4 1.73 3.02 1.73 2 6.54l-2.61 12.21q-0.27 1.27-0.59 3.08-0.22 1.36 0 1.85 0.24 0.49 0.85 0.81l-0.19 1.02h-7.57q-0.15-0.8-0.12-1.51 0.02-0.71 0.15-1.61-1.79 1.56-3.89 2.66-2.54 1.29-5.37 1.29-3.61 0-5.54-2.05-1.9-2.07-1.1-5.86 1.05-4.9 5.3-7.1 2.32-1.2 6.47-1.71zm5.42 5.54l0.54-2.59q-0.74 0.42-1.47 0.69-0.73 0.24-1.95 0.46l-1.61 0.29q-2.3 0.39-3.37 0.96-1.81 0.95-2.22 2.95-0.39 1.78 0.41 2.59 0.83 0.78 2.25 0.78 2.24 0 4.42-1.32 2.17-1.32 3-4.81zm23.88-25.63l-7.65 35.98h-6.95l7.64-35.98z"/>
	</g>
	<g id="warning">
		<path id="p9BuY8Eug" class="s16" d="m65.1 314.4c-3.7-4.6-2.8-7.9 8-29.6 18.5-37.1 42.9-87 42.9-87.7 0-0.4 1.3-1.9 2.8-3.4 2-1.9 3.9-2.7 6.4-2.7 6.5 0 4.6-3.2 34.6 58 6 12.4 14.6 29.9 19.1 38.9 9.7 19.8 10.2 21.6 6.6 25.9"/>
		<path id="pHqsQnemN" class="s17" d="m121.3 305.8c-1.2-0.6-2.9-2.8-3.8-5-1.5-3.7-1.4-4.3 0.2-7.6 3.4-6.9 10.8-7.5 15.1-1.2 2.9 4.3 2.2 8.4-1.9 12.3-3.1 2.8-5.9 3.3-9.6 1.5z"/>
		<path id="piCHY8B4" class="s17" d="m123.5 281c-0.9-1.5-7.5-48.5-7.5-53.5 0-6.5 3.1-9.5 9.9-9.5 4.2 0 5.3 0.4 7.1 2.8 2 2.4 2.2 3.5 1.7 11.2-0.3 4.7-1.3 12.6-2.1 17.5-0.8 5-2.2 13.9-3.1 19.9-0.8 6-1.8 11.3-2.1 11.7-0.7 1.2-3.1 1.1-3.9-0.1z"/>
		<text id="500 internal server error" class="darkmode-text t18 system-font" style="transform: matrix(1,0,0,1,243,263)" >
			500 internal server error
		</text>
	</g>
	<g id="button">
		<path id="Shape 5" fill-rule="evenodd" class="s19" d="m605 373v52h-170v-52z"/>
		<text id="이전 페이지" class="darkmode-text t20 system-font" style="transform: matrix(1,0,0,1,457,408)" >
			이전 페이지
		</text>
	</g>
</svg>
